<?xml version="1.0" standalone="no"?>
<!DOCTYPE svg PUBLIC "-//W3C//DTD SVG 1.1//EN" "http://www.w3.org/Graphics/SVG/1.1/DTD/svg11.dtd" >
<svg>
<metadata>
Created by FontForge 20090914 at Sun Feb 19 12:59:32 2017
 By www-data
TrueType font: Copyright &#194;&#169; 1991, 1994 ParaGraph. Technical realization by TeamAXis Corp. Hinted with AXisType ToolKit: Copyright &#194;&#169; 1992, 1994 by Dmitry Komissarov. Kabel is a registered trade mark of International Typeface Corporation.
</metadata>
<defs>
<font id="KabelCTT-Ultra" horiz-adv-x="556" >
  <font-face 
    font-family="KabelCTT Ultra"
    font-weight="400"
    font-stretch="normal"
    units-per-em="1000"
    panose-1="0 0 0 0 0 0 0 0 0 0"
    ascent="800"
    descent="-200"
    x-height="516"
    cap-height="702"
    bbox="-75 -196.003 1069 955"
    underline-thickness="50"
    underline-position="-75"
    unicode-range="U+0020-U+2122"
  />
<missing-glyph horiz-adv-x="955" 
d="M59 0v955h837v-955h-837zM837 59v837h-719v-837h719z" />
    <glyph glyph-name=".notdef" horiz-adv-x="955" 
d="M59 0v955h837v-955h-837zM837 59v837h-719v-837h719z" />
    <glyph glyph-name="space" unicode=" " horiz-adv-x="233" 
 />
    <glyph glyph-name="exclam" unicode="!" horiz-adv-x="389" 
d="M311 728l-22 -450l-188 -14l-27 448zM325 114l-130 -130l-130 130l130 130z" />
    <glyph glyph-name="quotedbl" unicode="&#x22;" horiz-adv-x="337" 
d="M320 415h-120v271h120v-271zM137 415h-120v271h120v-271z" />
    <glyph glyph-name="numbersign" unicode="#" horiz-adv-x="659" 
d="M626 516l-34 -90h-105l-32 -85h110l-33 -90h-110l-41 -110h-100l41 110h-85l-41 -110h-100l41 110h-105l34 90h105l31 85h-110l35 90h109l41 110h100l-41 -110h85l42 110h99l-41 -110h105zM387 426h-85l-31 -85h85z" />
    <glyph glyph-name="dollar" unicode="$" 
d="M513 272c0 -44 -14.335 -82.999 -43.002 -116.999c-32.667 -39.333 -76.667 -61.666 -132 -66.999v-86l-111 -14v95c-21.333 0 -42.666 1.33301 -63.999 4s-48.666 8.66699 -81.999 18v169c29.333 -10 56.333 -16.333 81 -19s47 -4 67 -4c24 0 41.333 1.33301 52 4
c18.667 4.66699 28 13.334 28 26.001c0 10.667 -8.33301 20 -25 28c-6.66699 3.33301 -20.667 8.66602 -42 15.999c-49.333 20 -85 39.333 -107 58c-38.667 32.667 -58 75 -58 127c0 48 14.333 89.167 43 123.5s66.667 56.166 114 65.499v59l111 12v-68
c19.333 0 38.833 -1.16699 58.5 -3.5s44.167 -7.5 73.5 -15.5v-167c-26 10 -51 17.167 -75 21.5s-46.667 6.5 -68 6.5s-36.5 -3.33301 -45.5 -10s-13.5 -14.334 -13.5 -23.001c0 -10.667 7.66699 -20 23 -28c8 -4 16.333 -7.66699 25 -11c68 -23.333 116 -50 144 -80
c30.667 -33.333 46 -73.333 46 -120z" />
    <glyph glyph-name="percent" unicode="%" horiz-adv-x="889" 
d="M816 168c0 -47.333 -15.833 -87.167 -47.5 -119.5s-72.167 -48.5 -121.5 -48.5c-48 0 -88.667 16 -122 48s-50 72 -50 120c0 46 16.5 85.833 49.5 119.5s73.833 50.5 122.5 50.5s89 -16.333 121 -49s48 -73 48 -121zM682 701.999l-392.001 -718.001h-104l302 547l-7 -3
c-9.33301 -4 -19.666 -6.66699 -30.999 -8h-12c-9.33301 0 -16.166 0.5 -20.499 1.5s-11.166 4.5 -20.499 10.5l1 -16c0 -41.333 -14 -78.333 -42 -111c-32.667 -38 -75 -57 -127 -57c-48 0 -88.667 16 -122 48s-50 72 -50 120c0 46 16.5 85.833 49.5 119.5
s73.833 50.5 122.5 50.5c27.333 0 52.666 -4.66699 75.999 -14c8.66699 -3.33301 26 -12.666 52 -27.999l19 -11c25.333 -14 39.666 -21.667 42.999 -23c14 -5.33301 26.667 -8 38 -8c23.333 0 44.333 6.66699 63 20c24 17.333 44 44 60 80h102zM692.999 167.998
c0 12.667 -4 23.665 -12 32.998s-19.333 14 -34 14c-15.333 0 -27.333 -4.66699 -36 -14s-13 -20.333 -13 -33c0 -13.333 4.83301 -24.166 14.5 -32.499s21.167 -12.5 34.5 -12.5s24.333 3.83301 33 11.5s13 18.834 13 33.501zM274.999 515.996
c0 12.667 -4 23.665 -12 32.998s-19.333 14 -34 14c-15.333 0 -27.333 -4.66699 -36 -14s-13 -20.333 -13 -33c0 -13.333 4.83301 -24.166 14.5 -32.499s21.167 -12.5 34.5 -12.5s24.333 3.83301 33 11.5s13 18.834 13 33.501z" />
    <glyph glyph-name="ampersand" unicode="&#x26;" horiz-adv-x="667" 
d="M645 298l-98.001 -94.998l93 -109l-118 -102l-84 93c-31.333 -37.333 -66.333 -64.333 -105 -81c-31.333 -13.333 -63.333 -20 -96 -20c-64.667 0 -116.5 19.833 -155.5 59.5s-58.5 90.5 -58.5 152.5c0 34 7 65 21 93c22 43.333 60.333 80.666 115 111.999
c-20.667 23.333 -34.5 44.5 -41.5 63.5s-10.5 37.833 -10.5 56.5c0 51.333 17.333 93.666 52 126.999c37.333 36 87.333 54 150 54c56.667 0 102 -16 136 -48c32 -30 48 -67.333 48 -112c0 -36 -11.667 -70 -35 -102c-17.333 -24 -40.666 -46 -69.999 -66l52 -58l98 96z
M336.999 527.002c0 11.333 -3.16699 20.168 -9.5 26.501s-14.5 9.5 -24.5 9.5c-8 0 -15.333 -3 -22 -9s-10 -16 -10 -30c0 -10 1.83301 -19.167 5.5 -27.5s11.5 -16.5 23.5 -24.5c8 4.66699 15.333 10.667 22 18c10 11.333 15 23.666 15 36.999zM333.999 206.004
l-69.999 79.999c-12.667 -8 -23.334 -18.167 -32.001 -30.5s-13 -24.166 -13 -35.499c0 -13.333 4.5 -25.333 13.5 -36s21.833 -16 38.5 -16c22.667 0 43.667 12.667 63 38z" />
    <glyph glyph-name="quotesingle" unicode="'" horiz-adv-x="222" 
d="M171 415h-120v271h120v-271z" />
    <glyph glyph-name="parenleft" unicode="(" horiz-adv-x="389" 
d="M369 -126l-106.999 -69.999c-82 78.667 -141 165 -177 259c-28.667 74.667 -43 154 -43 238c0 51.333 4.33301 99.333 13 144c12.667 63.333 33 122 61 176c35.333 67.333 83.666 129.666 144.999 186.999l107 -69c-49.333 -48.667 -88 -101 -116 -157
c-42 -83.333 -63 -176 -63 -278c0 -66 9 -127.333 27 -184c28 -88.667 79 -170.667 153 -246z" />
    <glyph glyph-name="parenright" unicode=")" horiz-adv-x="389" 
d="M347 311c0 -51.333 -4.33398 -99.334 -13.001 -144.001c-12.667 -63.333 -33 -122 -61 -176c-35.333 -67.333 -83.666 -129.666 -144.999 -186.999l-107 69c49.333 48.667 88 101 116 157c42 83.333 63 176 63 278c0 66 -9 127.333 -27 184
c-28 88.667 -79 170.667 -153 246l107 70c82 -78.667 141 -165 177 -259c28.667 -74.667 43 -154 43 -238z" />
    <glyph glyph-name="asterisk" unicode="*" horiz-adv-x="444" 
d="M418 560l-121 -61l117 -50l-38 -94l-114 76l4 -116l-98 -20l16 136l-96 -69l-61 77l123 60l-112 53l36 90l111 -75l-13 114l97 21l-5 -134l91 68z" />
    <glyph glyph-name="plus" unicode="+" horiz-adv-x="600" 
d="M558 197h-197v-197h-122v197h-197v122h197v197h122v-197h197v-122z" />
    <glyph glyph-name="comma" unicode="," horiz-adv-x="295" 
d="M304 197l-136 -386h-141l88 372z" />
    <glyph glyph-name="hyphen" unicode="-" horiz-adv-x="333" 
d="M294 177h-254v162h254v-162z" />
    <glyph glyph-name="period" unicode="." horiz-adv-x="278" 
d="M269 114l-130 -130l-130 130l130 130z" />
    <glyph glyph-name="slash" unicode="/" horiz-adv-x="278" 
d="M307 702l-204 -718h-131l204 718h131z" />
    <glyph glyph-name="zero" unicode="0" horiz-adv-x="512" 
d="M512 344c0 -138.667 -29.668 -237.667 -89.001 -297c-42 -42 -97.667 -63 -167 -63c-68.667 0 -124 21 -166 63c-60 60 -90 159 -90 297c0 132.667 27.333 228.667 82 288c42.667 46.667 100.667 70 174 70c72.667 0 130.334 -23 173.001 -69
c55.333 -60 83 -156.333 83 -289zM305.999 343c0 67.333 -3.66699 110.332 -11 128.999s-20.333 28 -39 28c-18 0 -30.333 -8 -37 -24c-8.66699 -21.333 -13 -65.666 -13 -132.999s3.66699 -110.333 11 -129s20.333 -28 39 -28c18 0 30.833 9.33301 38.5 28
s11.5 61.667 11.5 129z" />
    <glyph glyph-name="one" unicode="1" 
d="M421 0l-198 -16v440l-123 -52l-54 131l375 199v-702z" />
    <glyph glyph-name="two" unicode="2" horiz-adv-x="583" 
d="M550 195l-40.999 -194.998h-472l255 361c28 39.333 42 72 42 98c0 16 -5.66699 28.5 -17 37.5s-24.333 13.5 -39 13.5s-27 -5 -37 -15s-15 -22.333 -15 -37c0 -24.667 12 -42.334 36 -53.001l-108 -160c-36 18 -65 43 -87 75c-28 40 -42 87 -42 141
c0 69.333 23.333 126.333 70 171c49.333 46.667 113.666 70 192.999 70c75.333 0 135.5 -21.833 180.5 -65.5s67.5 -101.5 67.5 -173.5c0 -45.333 -12.333 -89.333 -37 -132c-17.333 -30.667 -44.333 -65.334 -81 -104.001l-30 -32h162z" />
    <glyph glyph-name="three" unicode="3" horiz-adv-x="569" 
d="M520 199c0 -62 -23.0049 -112.666 -69.0049 -151.999c-49.333 -42 -115.666 -63 -198.999 -63c-35.333 0 -68.666 3.66699 -99.999 11c-44.667 10.667 -88 28.667 -130 54l77 167c20.667 -13.333 42.167 -24 64.5 -32s45.833 -12 70.5 -12
c26.667 0 46.334 6.33301 59.001 19c9.33301 9.33301 14 20.333 14 33c0 20.667 -9.33301 34.667 -28 42c-11.333 4.66699 -27.666 7 -48.999 7h-55v153h59c23.333 0 40.333 5.33301 51 16c8 8 12 18 12 30c0 10.667 -4 19.667 -12 27c-11.333 10 -29 15 -53 15
c-20 0 -40.667 -3.5 -62 -10.5s-42.333 -17.5 -63 -31.5l-79 157c42.667 27.333 87.334 47 134.001 59c35.333 9.33301 69.333 14 102 14c84.667 0 148 -22.667 190 -68c32 -34.667 48 -75.334 48 -122.001c0 -35.333 -9.16699 -66 -27.5 -92s-42.833 -46.333 -73.5 -61
c35.333 -12 64 -31.833 86 -59.5s33 -61.167 33 -100.5z" />
    <glyph glyph-name="four" unicode="4" horiz-adv-x="596" 
d="M570 323l-27 -185h-68v-138l-200 -17v155h-277l181 548h296v-363h95zM287 310v191h-4l-62 -191h66z" />
    <glyph glyph-name="five" unicode="5" horiz-adv-x="562" 
d="M521 240c0 -64.667 -20.334 -120 -61.001 -166c-53.333 -60 -133 -90 -239 -90c-34 0 -67.333 2.66699 -100 8s-69 16 -109 32l75 172c22 -8 43 -13.833 63 -17.5s38.667 -5.5 56 -5.5c38.667 0 67 6.66699 85 20c13.333 10 20 22 20 36c0 22 -11.667 38.5 -35 49.5
s-54 16.5 -92 16.5c-18.667 0 -33.667 -0.5 -45 -1.5s-29.666 -4.5 -54.999 -10.5v403h411l-43 -185h-185v-52c15.333 4 30 6 44 6c54 0 101 -17.667 141 -53c46 -40 69 -94 69 -162z" />
    <glyph glyph-name="six" unicode="6" horiz-adv-x="570" 
d="M547 229c0 -67.333 -21.001 -123.332 -63.001 -167.999c-48 -51.333 -114.333 -77 -199 -77c-80.667 0 -144.667 26.667 -192 80c-42.667 48.667 -64 108.334 -64 179.001c0 51.333 14 108.666 42 171.999c22 50 53.667 104.667 95 164c31.333 45.333 64 87.333 98 126
l214 -61c-39.333 -38 -74.666 -75.667 -105.999 -113c-24 -28.667 -45.333 -56.334 -64 -83.001c13.333 4 27 6 41 6c45.333 0 87.333 -17.333 126 -52c48 -43.333 72 -101 72 -173zM342.999 237.001c0 14.667 -5.5 27.5 -16.5 38.5s-23.833 16.5 -38.5 16.5
c-14 0 -26.667 -5 -38 -15s-17 -23.333 -17 -40c0 -15.333 5.33301 -28.333 16 -39s23.667 -16 39 -16c16.667 0 30 5.66699 40 17s15 24 15 38z" />
    <glyph glyph-name="seven" unicode="7" 
d="M554 686l-239 -686l-236 -16l200 508h-245l44 194h476z" />
    <glyph glyph-name="eight" unicode="8" horiz-adv-x="572" 
d="M545 199c0 -55.333 -17.334 -102 -52.001 -140c-45.333 -50 -114.333 -75 -207 -75c-91.333 0 -160 25 -206 75c-35.333 38.667 -53 85.334 -53 140.001c0 32 8.66699 61.667 26 89s42.333 49.333 75 66c-30.667 19.333 -53 42.666 -67 69.999
c-11.333 22.667 -17 48 -17 76c0 53.333 17 98 51 134c42.667 45.333 106.334 68 191.001 68c84 0 147.333 -22.667 190 -68c34.667 -36.667 52 -81.334 52 -134.001c0 -35.333 -9.33301 -66.666 -28 -93.999c-14 -20 -32.667 -37.333 -56 -52
c32.667 -16 57.667 -37.833 75 -65.5s26 -57.5 26 -89.5zM332.999 476c0 14 -4.33301 25.333 -13 34s-20 13 -34 13c-12.667 0 -23.667 -4.33301 -33 -13s-14 -20 -14 -34c0 -13.333 4.5 -24.5 13.5 -33.5s20.167 -13.5 33.5 -13.5c14 0 25.333 4.66699 34 14
s13 20.333 13 33zM342.999 225c0 15.333 -5.66602 28.665 -16.999 39.998s-24.666 17 -39.999 17c-14.667 0 -27.834 -5.5 -39.501 -16.5s-17.5 -24.5 -17.5 -40.5c0 -15.333 5.66699 -28.666 17 -39.999s24.666 -17 39.999 -17c16 0 29.5 5.83301 40.5 17.5
s16.5 24.834 16.5 39.501z" />
    <glyph glyph-name="nine" unicode="9" 
d="M527 445c0 -48 -9.66406 -97.333 -28.9971 -148c-14.667 -38 -38.334 -82.667 -71.001 -134c-20.667 -32 -49 -72.333 -85 -121l-43 -58l-211 66c28.667 28 55.667 56.667 81 86c32 36.667 61 73 87 109l-22 -3l-21 -1c-50.667 0 -94.334 20.333 -131.001 61
c-39.333 43.333 -59 97.333 -59 162c0 67.333 22 123 66 167c47.333 47.333 111.666 71 192.999 71c76 0 136.333 -24.667 181 -74c42.667 -47.333 64 -108.333 64 -183zM329.003 452c0 14.667 -5 27 -15 37s-23 15 -39 15c-14.667 0 -27.334 -5 -38.001 -15
s-16 -22.333 -16 -37c0 -15.333 5 -28 15 -38s23 -15 39 -15c14.667 0 27.334 5 38.001 15s16 22.667 16 38z" />
    <glyph glyph-name="colon" unicode=":" horiz-adv-x="278" 
d="M269 387l-130 -130l-130 130l130 130zM269 114l-130 -130l-130 130l130 130z" />
    <glyph glyph-name="semicolon" unicode=";" horiz-adv-x="278" 
d="M287 387l-130 -130l-130 130l130 130zM266 197l-136 -386h-141l88 372z" />
    <glyph glyph-name="less" unicode="&#x3c;" horiz-adv-x="600" 
d="M558 -3l-516 214v94l516 214v-115l-356 -146l356 -146v-115z" />
    <glyph glyph-name="equal" unicode="=" horiz-adv-x="600" 
d="M558 311h-516v122h516v-122zM558 83h-516v122h516v-122z" />
    <glyph glyph-name="greater" unicode="&#x3e;" horiz-adv-x="600" 
d="M558 211l-516 -214v115l356 146l-356 146v115l516 -214v-94z" />
    <glyph glyph-name="question" unicode="?" horiz-adv-x="500" 
d="M471 521c0 -42.667 -12.668 -79.666 -38.001 -110.999c-18.667 -22.667 -54 -53 -106 -91c-6.66699 -4.66699 -11.667 -8.66699 -15 -12c-5.33301 -6 -8 -12.333 -8 -19v-18l-162 -14v57c0 21.333 2 38.666 6 51.999c6.66699 21.333 18.667 39.333 36 54
c19.333 13.333 34 24 44 32c19.333 15.333 29 31.333 29 48c0 11.333 -4.16699 20.833 -12.5 28.5s-19.833 11.5 -34.5 11.5c-10 0 -18.667 -1.83301 -26 -5.5s-14.666 -11.167 -21.999 -22.5l-6 -9l-149 108c26 39.333 58.5 68.833 97.5 88.5s83.167 29.5 132.5 29.5
c71.333 0 129.333 -22.333 174 -67c40 -40 60 -86.667 60 -140zM364.999 114.001l-130 -130l-130 130l130 130z" />
    <glyph glyph-name="at" unicode="@" horiz-adv-x="800" 
d="M756 410c0 -75.333 -26.668 -141.002 -80.001 -197.002c-50.667 -53.333 -107.334 -80 -170.001 -80c-15.333 0 -27.666 4 -36.999 12s-14 19.333 -14 34l-2 2c-12 -16 -26.333 -28 -43 -36s-33.334 -12 -50.001 -12c-39.333 0 -74.666 14.333 -105.999 43
c-36.667 33.333 -55 76.333 -55 129c0 58.667 17.667 109.334 53 152.001c38 46 85.667 69 143 69c50 0 89.667 -19 119 -57l9 47h92l-45 -239c-2 -10 -3 -18.667 -3 -26c0 -12.667 6 -19 18 -19c20.667 0 39.834 14.333 57.501 43s26.5 63.667 26.5 105
c0 74 -25 132 -75 174c-46.667 39.333 -106.667 59 -180 59c-79.333 0 -143 -25.333 -191 -76s-72 -115.667 -72 -195c0 -78.667 24 -142.334 72 -191.001c51.333 -52 120.666 -78 207.999 -78c26.667 0 50.667 2.33301 72 7c30 6.66699 59.667 18.334 89 35.001l39 -75
c-29.333 -18 -62.5 -31.833 -99.5 -41.5s-73.167 -14.5 -108.5 -14.5c-107.333 0 -197.166 34.167 -269.499 102.5s-108.5 153.5 -108.5 255.5c0 102.667 36 188.334 108 257.001s160 103 264 103c92 0 170.667 -26.667 236 -80c68.667 -56 103 -126.667 103 -212z
M485.999 342.998c0 22.667 -6.83203 41.168 -20.499 55.501s-32.5 21.5 -56.5 21.5c-27.333 0 -50 -9.33301 -68 -28s-27 -42.334 -27 -71.001c0 -23.333 6.66699 -42.333 20 -57s31 -22 53 -22c25.333 0 48.166 9.16699 68.499 27.5s30.5 42.833 30.5 73.5z" />
    <glyph glyph-name="A" unicode="A" horiz-adv-x="667" 
d="M693 0l-235 -16l-34 119h-188l-35 -119l-227 16l226 686h262zM383 274l-53 216l-56 -216h109z" />
    <glyph glyph-name="B" unicode="B" horiz-adv-x="612" 
d="M590 194c0 -57.333 -20.999 -103.999 -62.999 -139.999s-96.333 -54 -163 -54h-312v686h282c77.333 0 137 -18.667 179 -56c36.667 -32.667 55 -74.334 55 -125.001c0 -32 -7.33301 -60.5 -22 -85.5s-36.667 -44.5 -66 -58.5c37.333 -15.333 65.666 -39 84.999 -71
c16.667 -28 25 -60 25 -96zM351.001 477.001c0 16 -5.5 28.832 -16.5 38.499s-25.5 14.5 -43.5 14.5h-22v-107h26c17.333 0 31 5.33301 41 16s15 23.334 15 38.001zM364.001 220c0 17.333 -5.66602 31.667 -16.999 43s-28.333 17 -51 17h-27v-120h27
c25.333 0 43.666 7.33301 54.999 22c8.66699 11.333 13 24 13 38z" />
    <glyph glyph-name="C" unicode="C" horiz-adv-x="536" 
d="M526 218l-29.001 -218c-42.667 -10.667 -84 -16 -124 -16c-101.333 0 -185.333 33.667 -252 101s-100 151.333 -100 252c0 104.667 34.333 191.667 103 261s157 104 265 104c18 0 34.5 -1.16699 49.5 -3.5s31.5 -5.83301 49.5 -10.5l36 -214c-38 17.333 -76 26 -114 26
c-55.333 0 -98.666 -16.333 -129.999 -49c-28 -28.667 -42 -64.667 -42 -108c0 -46 16 -83.667 48 -113s72 -44 120 -44c20 0 39.5 2 58.5 6s39.5 12.667 61.5 26z" />
    <glyph glyph-name="D" unicode="D" horiz-adv-x="668" 
d="M645 350c0 -92 -27 -170.332 -81 -234.999c-64 -76.667 -154 -115 -270 -115h-242v686h222c106.667 0 195.167 -30.833 265.5 -92.5s105.5 -142.834 105.5 -243.501zM428 333.001c0 45.333 -13.668 82.333 -41.001 111c-29.333 30.667 -68.666 46 -117.999 46v-294h26
c39.333 0 71.333 13 96 39s37 58.667 37 98z" />
    <glyph glyph-name="E" unicode="E" horiz-adv-x="506" 
d="M491 190l-44 -190h-395v686h381l43 -184h-207v-68h135v-171h-135v-73h222z" />
    <glyph glyph-name="F" unicode="F" horiz-adv-x="449" 
d="M454 490h-185v-84h125v-184h-125v-222l-217 -16v702h353z" />
    <glyph glyph-name="G" unicode="G" horiz-adv-x="678" 
d="M637 43c-37.333 -18.667 -78.499 -33.1641 -123.499 -43.4971s-88.5 -15.5 -130.5 -15.5c-117.333 0 -209.333 40.667 -276 122c-57.333 70 -86 152.667 -86 248c0 99.333 37.833 182.166 113.5 248.499s165.167 99.5 268.5 99.5c48.667 0 94.667 -8.66699 138 -26
c19.333 -8 48.666 -23.667 87.999 -47l5 -3l-114 -171c-18 15.333 -38 26.666 -60 33.999s-42.667 11 -62 11c-44.667 0 -80.667 -15.333 -108 -46s-41 -69.334 -41 -116.001c0 -40 9.33301 -73.333 28 -100c24 -34.667 60.333 -52 109 -52h18l23 3v65h-103l38 156h275v-367
z" />
    <glyph glyph-name="H" unicode="H" horiz-adv-x="668" 
d="M616 0l-217 -16v272h-130v-256l-217 -16v702l217 16v-250h130v234l217 16v-702z" />
    <glyph glyph-name="I" unicode="I" horiz-adv-x="333" 
d="M275 0l-217 -16v702l217 16v-702z" />
    <glyph glyph-name="J" unicode="J" horiz-adv-x="360" 
d="M308 261c0 -108.667 -21.667 -181.667 -65 -219c-32.667 -28 -90.334 -42 -173.001 -42h-50l-47 213c7.33301 -2 18.5 -4.33301 33.5 -7s27.167 -4 36.5 -4c20.667 0 34.334 7.33301 41.001 22c4.66699 10 7 26 7 48v414l217 16v-441z" />
    <glyph glyph-name="K" unicode="K" horiz-adv-x="632" 
d="M642 0l-244 -16l-127 358l-2 -342l-217 -16v702l217 16v-307l113 307l233 -16l-135 -312z" />
    <glyph glyph-name="L" unicode="L" horiz-adv-x="506" 
d="M506 202l-46 -202h-408v686l217 16v-500h237z" />
    <glyph glyph-name="M" unicode="M" horiz-adv-x="778" 
d="M768 0l-217 -16l-31 324l-133 -342l-128 341l-38 -323l-211 16l89 686h198l95 -254l94 254h197z" />
    <glyph glyph-name="N" unicode="N" horiz-adv-x="723" 
d="M671 0h-204l-205 331l-2 -331l-208 -16v702h210l199 -328l2 328l208 16v-702z" />
    <glyph glyph-name="O" unicode="O" horiz-adv-x="812" 
d="M791 343c0 -99.333 -37.667 -184 -113 -254s-166 -105 -272 -105c-105.333 0 -195.833 34.833 -271.5 104.5s-113.5 154.5 -113.5 254.5s37.833 184.833 113.5 254.5s166.167 104.5 271.5 104.5s195.833 -34.833 271.5 -104.5s113.5 -154.5 113.5 -254.5zM563 343
c0 43.333 -15.333 80.333 -46 111s-67.667 46 -111 46s-80.333 -15 -111 -45s-46 -67.333 -46 -112c0 -43.333 15.333 -80.333 46 -111s67.667 -46 111 -46s80.333 15.333 111 46s46 67.667 46 111z" />
    <glyph glyph-name="P" unicode="P" horiz-adv-x="592" 
d="M572 440c0 -63.333 -20.334 -117.332 -61.001 -161.999c-47.333 -52 -114.666 -78 -201.999 -78h-40v-200l-217 -16v702h213c78 0 140.333 -11.333 187 -34c80 -38.667 120 -109.334 120 -212.001zM353.999 444.001c0 24.667 -8.33301 43.333 -25 56
c-13.333 10 -28.333 15 -45 15h-15v-150h15c21.333 0 38.333 7.83301 51 23.5s19 34.167 19 55.5z" />
    <glyph glyph-name="Q" unicode="Q" horiz-adv-x="812" 
d="M791 343c0 -45.333 -9.83203 -89.167 -29.499 -131.5s-47.834 -79.5 -84.501 -111.5l101 -88l-162 -123l-115 111c-16.667 -5.33301 -33.167 -9.33301 -49.5 -12s-31.5 -4 -45.5 -4c-104 0 -194.167 35.167 -270.5 105.5s-114.5 154.833 -114.5 253.5
c0 100 37.833 184.833 113.5 254.5s166.167 104.5 271.5 104.5s195.833 -34.833 271.5 -104.5s113.5 -154.5 113.5 -254.5zM563.001 342.999c0 43.333 -15.333 80.333 -46 111s-67.667 46 -111 46s-80.333 -15 -111 -45s-46 -67.333 -46 -112
c0 -43.333 15.333 -80.333 46 -111s67.667 -46 111 -46s80.333 15.333 111 46s46 67.667 46 111z" />
    <glyph glyph-name="R" unicode="R" horiz-adv-x="648" 
d="M629 10l-239 -24.999l-117 300h-4v-285l-217 -16v702h237c84 0 150 -10.667 198 -32c77.333 -34.667 116 -96.334 116 -185.001c0 -38.667 -9.5 -73.167 -28.5 -103.5s-46.167 -52.833 -81.5 -67.5zM375 413.001c0 24 -7.66797 43.667 -23.001 59s-34.666 23 -57.999 23
h-25v-165h29c22.667 0 41.167 8.16699 55.5 24.5s21.5 35.833 21.5 58.5z" />
    <glyph glyph-name="S" unicode="S" 
d="M523 214c0 -58.667 -16.667 -106.666 -50 -143.999c-51.333 -57.333 -138 -86 -260 -86c-36 0 -65.667 1.66699 -89 5c-31.333 6 -56.666 10.667 -75.999 14l-6 1v196c38 -8 70.167 -13.333 96.5 -16s51.166 -4 74.499 -4s40.333 1.33301 51 4
c22 5.33301 33 16.333 33 33c0 10.667 -5.33301 19.667 -16 27c-0.666992 0.666992 -26 10.667 -76 30c-68 26 -114 56 -138 90c-21.333 30 -32 67.667 -32 113c0 62 19 112.667 57 152c46.667 48.667 116.667 73 210 73c33.333 0 63.333 -1.16699 90 -3.5
s57.334 -7.16602 92.001 -14.499v-197c-34.667 10 -63.334 16.667 -86.001 20s-43 5 -61 5c-30 0 -51.667 -2.83301 -65 -8.5s-20 -13.834 -20 -24.501c0 -13.333 13 -25 39 -35l37 -14c66.667 -26.667 113.667 -53 141 -79c36 -34.667 54 -80.334 54 -137.001z" />
    <glyph glyph-name="T" unicode="T" horiz-adv-x="497" 
d="M489 484h-128v-484l-217 -16v500h-149l46 202h448v-202z" />
    <glyph glyph-name="U" unicode="U" horiz-adv-x="629" 
d="M577 222c0 -79.333 -26.6689 -139.667 -80.002 -181c-48.667 -38 -115 -57 -199 -57c-73.333 0 -132.666 20.333 -177.999 61s-68 99 -68 175v466l217 16v-466c0 -20 3.83301 -34.333 11.5 -43s19.834 -13 36.501 -13c17.333 0 29.333 6.33301 36 19
c4.66699 8.66699 7 21 7 37v450l217 16v-480z" />
    <glyph glyph-name="V" unicode="V" horiz-adv-x="588" 
d="M598 686l-170 -686h-267l-171 686l218 16l89 -465l87 465z" />
    <glyph glyph-name="W" unicode="W" horiz-adv-x="833" 
d="M847 686l-154 -686h-193l-84 363l-83 -363h-194l-152 686l214 16l75 -345l74 329h134l76 -333l77 349z" />
    <glyph glyph-name="X" unicode="X" horiz-adv-x="611" 
d="M622 0l-237 -16l-85 219l-80 -219l-231 16l175 357l-164 329l229 16l76 -198l74 198l225 -16l-161 -332z" />
    <glyph glyph-name="Y" unicode="Y" 
d="M583 682l-267 -698l-238 24l100 216l-211 458l237 20l82 -230l73 230z" />
    <glyph glyph-name="Z" unicode="Z" 
d="M552 202l-44 -202h-514l220 490h-190l42 196h471l-220 -484h235z" />
    <glyph glyph-name="bracketleft" unicode="[" horiz-adv-x="333" 
d="M275 -181h-217v974h215v-88h-86v-798h88v-88z" />
    <glyph glyph-name="backslash" unicode="\" horiz-adv-x="278" 
d="M353 -16h-128l-300 718h128z" />
    <glyph glyph-name="bracketright" unicode="]" horiz-adv-x="333" 
d="M275 -181h-215v88h86v798h-88v88h217v-974z" />
    <glyph glyph-name="asciicircum" unicode="^" horiz-adv-x="600" 
d="M527 321h-116l-111 248l-111 -248h-116l174 365h106z" />
    <glyph glyph-name="underscore" unicode="_" horiz-adv-x="500" 
d="M500 -125h-500v74h500v-74z" />
    <glyph glyph-name="grave" unicode="`" horiz-adv-x="252" 
d="M216 621l-35 -65l-247 113l44 89z" />
    <glyph glyph-name="a" unicode="a" horiz-adv-x="565" 
d="M522 0l-193 -16.001v56c-19.333 -22 -41.666 -37.333 -66.999 -46c-18.667 -6.66699 -40.334 -10 -65.001 -10c-53.333 0 -96.833 16.5 -130.5 49.5s-50.5 75.833 -50.5 128.5c0 50.667 16.833 92.834 50.5 126.501s77.167 50.5 130.5 50.5c22.667 0 43 -2.83301 61 -8.5
s37.667 -16.834 59 -33.501v37c0 16 -7.16699 29.333 -21.5 40s-36.5 16 -66.5 16c-51.333 0 -102 -9 -152 -27l35 146c30 8 61.833 13.833 95.5 17.5s61.167 5.5 82.5 5.5c70 0 126.167 -16.167 168.5 -48.5s63.5 -77.166 63.5 -134.499v-349zM322 167.999
c0 12 -4.83301 23.167 -14.5 33.5s-21.167 15.5 -34.5 15.5s-24.833 -4.83301 -34.5 -14.5s-14.5 -21.167 -14.5 -34.5c0 -12 4.5 -23.167 13.5 -33.5s20.833 -15.5 35.5 -15.5c16 0 28.167 5.16699 36.5 15.5s12.5 21.5 12.5 33.5z" />
    <glyph glyph-name="b" unicode="b" horiz-adv-x="622" 
d="M601 272c0 -78 -23.334 -143.999 -70.001 -197.999c-52 -60 -122 -90 -210 -90c-81.333 0 -148 26.333 -200 79c-54 54.667 -81 127.667 -81 219v438l194 16v-237c19.333 11.333 39.833 19.666 61.5 24.999s39.834 8 54.501 8c68 0 126.833 -25.5 176.5 -76.5
s74.5 -112.167 74.5 -183.5zM389.999 258.001c0 21.333 -7.33398 39.666 -22.001 54.999s-33.334 23 -56.001 23c-21.333 0 -39.666 -7.66699 -54.999 -23s-23 -33.666 -23 -54.999c0 -22 7.5 -40.5 22.5 -55.5s33.5 -22.5 55.5 -22.5c20.667 0 38.834 7 54.501 21
s23.5 33 23.5 57z" />
    <glyph glyph-name="c" unicode="c" horiz-adv-x="524" 
d="M514 52c-33.333 -26.667 -69.666 -45.332 -108.999 -55.999c-29.333 -8 -62.333 -12 -99 -12c-88.667 0 -159.667 28 -213 84c-48 50.667 -72 111.667 -72 183c0 78.667 25.333 144 76 196c55.333 56.667 129.666 85 222.999 85c42 0 80.667 -7 116 -21
c24 -9.33301 48 -23.333 72 -42l-118 -155c-20 16 -43 24 -69 24s-47.333 -7.33301 -64 -22s-25 -33 -25 -55c0 -22.667 8.16699 -42.167 24.5 -58.5s38.5 -24.5 66.5 -24.5c12.667 0 25 2.16699 37 6.5s23 11.166 33 20.499z" />
    <glyph glyph-name="d" unicode="d" horiz-adv-x="624" 
d="M581 0l-174.999 -12.001v51h-4c-20.667 -22 -45.334 -37.333 -74.001 -46c-19.333 -6 -40.666 -9 -63.999 -9c-71.333 0 -129.833 26.333 -175.5 79s-68.5 116.334 -68.5 191.001c0 82 26.333 149.667 79 203c49.333 50 107.666 75 174.999 75c25.333 0 49.333 -4 72 -12
c15.333 -5.33301 29 -12.333 41 -21v213l194 16v-728zM387.001 257.999c0 22 -7.5 40.5 -22.5 55.5s-33.5 22.5 -55.5 22.5s-40.5 -7.5 -55.5 -22.5s-22.5 -33.5 -22.5 -55.5s7.5 -40.5 22.5 -55.5s33.5 -22.5 55.5 -22.5s40.5 7.5 55.5 22.5s22.5 33.5 22.5 55.5z" />
    <glyph glyph-name="e" unicode="e" horiz-adv-x="579" 
d="M566 363l-277.999 -194.002c7.33301 -5.33301 15 -9.16602 23 -11.499s18.333 -3.5 31 -3.5c26 0 51.667 6 77 18c17.333 8 34 19 50 33l86 -147c-38.667 -28 -79.667 -48 -123 -60c-33.333 -9.33301 -67.333 -14 -102 -14c-97.333 0 -174.666 28.333 -231.999 85
c-52 51.333 -78 114.333 -78 189s26 138.334 78 191.001c54.667 55.333 124 83 208 83c55.333 0 106.166 -14.167 152.499 -42.5s82.166 -70.5 107.499 -126.5zM363.001 352.998c-8 8.66699 -16.667 15 -26 19s-20 6 -32 6c-24 0 -44.5 -7.83301 -61.5 -23.5
s-25.5 -38.5 -25.5 -68.5c0 -11.333 2.33301 -21 7 -29z" />
    <glyph glyph-name="f" unicode="f" horiz-adv-x="332" 
d="M344 571l-35 2.99902c-18.667 0 -32.5 -5.16699 -41.5 -15.5s-13.5 -21.166 -13.5 -32.499v-10h77v-154h-77v-354l-194 -16v370h-62l29 154h33v16c0 60 18.667 107.667 56 143s84.333 53 141 53c21.333 0 36.333 -0.333008 45 -1c11.333 -2 18 -3 20 -3z" />
    <glyph glyph-name="g" unicode="g" horiz-adv-x="559" 
d="M533 315c0 -33.333 -6.99805 -63.666 -20.998 -90.999c-16 -31.333 -40.333 -55.666 -73 -72.999c30.667 -14.667 53.667 -35.167 69 -61.5s23 -55.833 23 -88.5c0 -55.333 -22 -100.666 -66 -135.999c-50.667 -40.667 -125 -61 -223 -61
c-39.333 0 -74.833 2.5 -106.5 7.5s-67.834 14.833 -108.501 29.5l87 158c22 -8.66699 45.167 -15 69.5 -19s44.166 -6 59.499 -6c28 0 48.333 5.16699 61 15.5s19 22.5 19 36.5c0 15.333 -5.33301 27.666 -16 36.999c-16 14 -42.667 21 -80 21c-12 0 -25.5 -0.5 -40.5 -1.5
s-34.833 -2.83301 -59.5 -5.5l17 36c-42 19.333 -74 48.666 -96 87.999c-18.667 33.333 -28 70.333 -28 111c0 59.333 20 109.666 60 150.999c44.667 46 105 69 181 69c23.333 0 42.333 -1.16699 57 -3.5s29.667 -6.5 45 -12.5l159 32l-47 -91
c18 -17.333 32.167 -37.333 42.5 -60s15.5 -50 15.5 -82zM336.002 301c0 16 -5 29 -15 39s-23 15 -39 15s-29 -5 -39 -15s-15 -23 -15 -39s5 -29 15 -39s23 -15 39 -15s29 5 39 15s15 23 15 39z" />
    <glyph glyph-name="h" unicode="h" horiz-adv-x="555" 
d="M512 8l-193.999 -15.999v326c0 11.333 -3.66699 20.333 -11 27s-17 10 -29 10c-10.667 0 -20.167 -3.83301 -28.5 -11.5s-12.5 -17.834 -12.5 -30.501v-305l-194 -16v720l194 16v-251h4c10 14 22.333 25.333 37 34c22.667 14 49 21 79 21
c43.333 0 78.666 -13.333 105.999 -40c32.667 -32 49 -78 49 -138v-346z" />
    <glyph glyph-name="i" unicode="i" horiz-adv-x="280" 
d="M261 665l-117 -105l-125 105l117 113zM237 8l-194 -16v524l194 16v-524z" />
    <glyph glyph-name="j" unicode="j" horiz-adv-x="279" 
d="M260 665l-117 -105l-125 105l117 113zM236 53c0 -70 -18.333 -124.667 -55 -164s-86.667 -59 -150 -59h-42l-49 164h21c22 0 38.667 3.33301 50 10c20.667 12 31 33.667 31 65v447l194 16v-479z" />
    <glyph glyph-name="k" unicode="k" horiz-adv-x="571" 
d="M571 8l-210 -16l-120 277h-4v-261l-194 -16v720l194 16v-431h4l91 227l208 -16l-109 -217z" />
    <glyph glyph-name="l" unicode="l" horiz-adv-x="280" 
d="M237 8l-194 -16v720l194 16v-720z" />
    <glyph glyph-name="m" unicode="m" horiz-adv-x="830" 
d="M787 8l-193.998 -16.001v323c0 26.667 -13.333 40 -40 40c-12.667 0 -22.667 -3.66699 -30 -11s-11 -19 -11 -35v-301l-194 -16v323c0 26.667 -13.333 40 -40 40c-12.667 0 -22.667 -3.66699 -30 -11s-11 -19 -11 -35v-301l-194 -16v516l178 15v-73h4
c16.667 24 36 43 58 57c27.333 16.667 58 25 92 25c23.333 0 42.666 -2.66699 57.999 -8c24.667 -8.66699 46 -23.667 64 -45c19.333 20.667 41.666 35.334 66.999 44.001c17.333 6 34.333 9 51 9c46.667 0 86 -15 118 -45c36 -34 54 -80 54 -138v-341z" />
    <glyph glyph-name="n" unicode="n" horiz-adv-x="555" 
d="M512 8l-194.001 -15.998v326c0 11.333 -3.66699 20.333 -11 27s-17 10 -29 10c-10.667 0 -20.167 -3.83301 -28.5 -11.5s-12.5 -17.834 -12.5 -30.501v-305l-194 -16v516l182 15v-60h4c14.667 21.333 31.667 37.666 51 48.999c22.667 13.333 48.334 20 77.001 20
c42 0 76.333 -11.667 103 -35c34.667 -30 52 -77.667 52 -143v-346z" />
    <glyph glyph-name="o" unicode="o" horiz-adv-x="620" 
d="M599 258c0 -75.333 -28.167 -139.832 -84.5 -193.499s-124.5 -80.5 -204.5 -80.5c-78.667 0 -146.5 26.833 -203.5 80.5s-85.5 118.167 -85.5 193.5c0 69.333 24.667 130.666 74 183.999c55.333 60 127 90 215 90c80 0 148.167 -26.5 204.5 -79.5
s84.5 -117.833 84.5 -194.5zM388 258.001c0 22.667 -7.33301 41.667 -22 57s-33.334 23 -56.001 23c-22 0 -40.5 -7.83301 -55.5 -23.5s-22.5 -34.5 -22.5 -56.5c0 -22.667 7.33301 -41.667 22 -57s33.334 -23 56.001 -23c22 0 40.5 7.83301 55.5 23.5s22.5 34.5 22.5 56.5z
" />
    <glyph glyph-name="p" unicode="p" horiz-adv-x="624" 
d="M603 260c0 -81.333 -27 -148.668 -81 -202.001c-50 -49.333 -106.333 -74 -169 -74c-28 0 -53 4.66699 -75 14c-15.333 6.66699 -29 15.334 -41 26.001v-178l-194 -16v678l186 15v-52h4c14 16.667 29.667 30 47 40c24.667 14 52 21 82 21
c62.667 0 117.667 -24.667 165 -74c50.667 -52.667 76 -118.667 76 -198zM392 257.998c0 22 -7.16602 40.833 -21.499 56.5s-32.833 23.5 -55.5 23.5s-41.334 -7.66699 -56.001 -23s-22 -34.333 -22 -57c0 -22 7.5 -40.833 22.5 -56.5s33.5 -23.5 55.5 -23.5
c22.667 0 41.167 7.83301 55.5 23.5s21.5 34.5 21.5 56.5z" />
    <glyph glyph-name="q" unicode="q" horiz-adv-x="611" 
d="M568 -154l-193.999 -16v182c-18.667 -11.333 -36 -18.833 -52 -22.5s-32.333 -5.5 -49 -5.5c-74 0 -134.5 26.667 -181.5 80s-70.5 118 -70.5 194c0 74.667 22.333 139 67 193s100.667 81 168 81c27.333 0 50.666 -3.66699 69.999 -11c28 -10.667 49.667 -28.667 65 -54
l2 41l175 14v-676zM380.001 258c0 22 -6.83301 41.167 -20.5 57.5s-31.834 24.5 -54.501 24.5s-41 -8 -55 -24s-21 -35.333 -21 -58s7 -42 21 -58s32.333 -24 55 -24s40.834 8 54.501 24s20.5 35.333 20.5 58z" />
    <glyph glyph-name="r" unicode="r" horiz-adv-x="377" 
d="M390 529l-47 -196l-12 1c-30 0 -53.167 -11.5 -69.5 -34.5s-24.5 -53.5 -24.5 -91.5v-200l-194 -16v516l171 14v-77c14 26 31 46 51 60c25.333 18 57.333 27 96 27z" />
    <glyph glyph-name="s" unicode="s" horiz-adv-x="434" 
d="M412 148c0 -49.333 -19.3311 -89.001 -57.998 -119.001s-93.667 -45 -165 -45c-36 0 -67.5 1.83301 -94.5 5.5s-50.167 7.83398 -69.5 12.501v168c22 -6 42.667 -10.5 62 -13.5s35.666 -4.5 48.999 -4.5c24.667 0 41.5 2.33301 50.5 7s13.5 11 13.5 19
c0 11.333 -12.667 21.666 -38 30.999c-40 14.667 -64 24.667 -72 30c-26.667 16 -45.667 38 -57 66c-8 19.333 -12 41 -12 65c0 42 14.333 77.333 43 106c37.333 37.333 94 56 170 56c20 0 42.5 -1.5 67.5 -4.5s50.833 -7.5 77.5 -13.5v-166
c-17.333 5.33301 -36 9.33301 -56 12s-38 4 -54 4c-17.333 0 -29.666 -1.83301 -36.999 -5.5s-11 -9.5 -11 -17.5c0 -10 9.66699 -18.5 29 -25.5s38.666 -13.5 57.999 -19.5c27.333 -11.333 49.666 -26.333 66.999 -45c24.667 -27.333 37 -61.666 37 -102.999z" />
    <glyph glyph-name="t" unicode="t" horiz-adv-x="333" 
d="M326 164l-31 -177.001c-7.33301 -0.666992 -17 -1.16699 -29 -1.5s-21 -0.833008 -27 -1.5c-49.333 0 -88 8.66699 -116 26c-43.333 26.667 -65 73.334 -65 140.001v212h-59l28 154h31v59l194 88v-147h61v-154h-61v-157c0 -16.667 1.33301 -27 4 -31
c5.33301 -8.66699 18 -13 38 -13z" />
    <glyph glyph-name="u" unicode="u" horiz-adv-x="555" 
d="M512 0l-171.998 -8v83c-10.667 -29.333 -28.334 -51.833 -53.001 -67.5s-56 -23.5 -94 -23.5c-44.667 0 -80.834 13.5 -108.501 40.5s-41.5 65.5 -41.5 115.5v368l194 16v-320c0 -28.667 13.667 -43 41 -43c12 0 21.667 4 29 12s11 18 11 30v305l194 16v-524z" />
    <glyph glyph-name="v" unicode="v" horiz-adv-x="500" 
d="M499 508l-123 -508h-258l-117 508l192 16l51 -346l61 346z" />
    <glyph glyph-name="w" unicode="w" horiz-adv-x="722" 
d="M735 508l-138 -508h-185l-50 235l-53 -235h-184l-139 508l200 16l53 -243l57 235h136l53 -235l55 243z" />
    <glyph glyph-name="x" unicode="x" horiz-adv-x="515" 
d="M523 8l-215 -16l-51 162l-54 -162l-211 16l119 262l-111 238l208 16l47 -150l43 150l207 -16l-107 -238z" />
    <glyph glyph-name="y" unicode="y" horiz-adv-x="452" 
d="M466 508l-191 -667l-203 16l77 211l-168 440l195 16l60 -197l46 197z" />
    <glyph glyph-name="z" unicode="z" horiz-adv-x="444" 
d="M436 186l-39 -186h-405l152 330h-128l38 186h373l-150 -330h159z" />
    <glyph glyph-name="braceleft" unicode="{" horiz-adv-x="389" 
d="M364 -108l-38.999 -88.0029h-47c-46 0 -84 12 -114 36c-33.333 26.667 -50 64 -50 112v226c0 26.667 -7 45.834 -21 57.501s-31.667 17.5 -53 17.5v106c21.333 0 38.333 5.33301 51 16c15.333 12.667 23 32.334 23 59.001v226c0 41.333 16 77 48 107
c29.333 27.333 61 41 95 41h68l39 -88h-59c-22 0 -36.667 -3 -44 -9c-12 -9.33301 -18 -29.666 -18 -60.999v-239c0 -28 -3 -49 -9 -63c-10 -24 -29 -37.333 -57 -40v-4c28 -2.66699 47 -15.667 57 -39c6 -14 9 -35.333 9 -64v-239c0 -29.333 8.66699 -49.333 26 -60
c11.333 -6.66699 27.666 -10 48.999 -10h46z" />
    <glyph glyph-name="bar" unicode="|" horiz-adv-x="222" 
d="M172 0h-122v686h122v-686z" />
    <glyph glyph-name="braceright" unicode="}" horiz-adv-x="389" 
d="M349 253c-21.333 0 -39 -5.83105 -53 -17.498s-21 -30.834 -21 -57.501v-226c0 -47.333 -15.833 -83.833 -47.5 -109.5s-70.5 -38.5 -116.5 -38.5h-47l-39 88h46c22 0 38 3 48 9c18 10.667 27 31 27 61v239c0 28 3 49 9 63c10 24 29 37.333 57 40v4
c-28 2.66699 -47 15.667 -57 39c-6 14 -9 35.333 -9 64v239c0 30 -6 50 -18 60c-8 6.66699 -22.667 10 -44 10h-59l39 88h68c34 0 65.667 -13.667 95 -41c32 -30 48 -65.667 48 -107v-226c0 -26.667 7.66699 -46.334 23 -59.001c12.667 -10.667 29.667 -16 51 -16v-106z" />
    <glyph glyph-name="asciitilde" unicode="~" horiz-adv-x="600" 
d="M531 255c-18 -27.333 -37.166 -48.502 -57.499 -63.502s-42.833 -22.5 -67.5 -22.5c-10.667 0 -22 1.33301 -34 4s-23.667 6.33398 -35 11.001c-32 16 -56 27.333 -72 34c-28.667 12.667 -54 19 -76 19s-40.667 -8 -56 -24c-12 -12.667 -21.333 -28.667 -28 -48l-36 96
c11.333 24 26.333 43.333 45 58c23.333 18.667 50 28 80 28c22.667 0 53 -7.66699 91 -23c10 -4 34.333 -14.333 73 -31c8.66699 -4 17.167 -7.33301 25.5 -10s16.166 -4 23.499 -4c16 0 31 5.66699 45 17c10.667 8.66699 22.667 23.334 36 44.001l7 11z" />
    <glyph glyph-name="c128" horiz-adv-x="718" 
d="M688 207c0 -84 -31.6689 -144.666 -95.002 -181.999c-46 -27.333 -103.667 -41 -173 -41l-34 175c28 0 47.667 5.5 59 16.5s17 24.167 17 39.5c0 14 -5.16699 24.667 -15.5 32s-25.166 11 -44.499 11c-10 0 -18.667 -0.833008 -26 -2.5s-16.666 -5.5 -27.999 -11.5v-244
l-217 -16v500h-139l46 202h456v-202h-146v-86c13.333 5.33301 30.833 9.66602 52.5 12.999s42.167 5 61.5 5c64.667 0 118.5 -18.833 161.5 -56.5s64.5 -88.5 64.5 -152.5z" />
    <glyph glyph-name="c129" horiz-adv-x="464" 
d="M385 821l-254 -114l-36 65l245 139zM464 484h-195v-484l-217 -16v702h363z" />
    <glyph glyph-name="c141" horiz-adv-x="637" 
d="M471 821l-254 -114l-36 65l245 139zM642 0l-244 -16l-127 358l-2 -342l-217 -16v702l217 16v-307l113 307l233 -16l-135 -312z" />
    <glyph glyph-name="c142" horiz-adv-x="730" 
d="M685 0l-216.999 -15.9971v179c0 19.333 -3.33301 33.666 -10 42.999c-10.667 14.667 -29.334 22 -56.001 22c-13.333 0 -25.333 -1.66699 -36 -5c-10.667 -4.66699 -16.667 -7.33398 -18 -8.00098v-215l-217 -16v500h-139l46 202h456v-202h-146v-84
c13.333 4.66699 25.666 8 36.999 10c22.667 4 48.334 6 77.001 6c94.667 0 158.667 -26.333 192 -79c20.667 -32.667 31 -83.334 31 -152.001v-185z" />
    <glyph glyph-name="c143" horiz-adv-x="668" 
d="M616 0h-174v-116l-216 -16v132h-174v686l217 16v-506h130v490l217 16v-702z" />
    <glyph glyph-name="c144" horiz-adv-x="562" 
d="M532 252c0 -89.333 -10 -163.666 -30 -222.999c-23.333 -69.333 -65 -135 -125 -197l-140 86l14 16c32.667 37.333 55 86.333 67 147c7.33301 36.667 11 79.667 11 129v29c0 36 -2.33301 62 -7 78c-7.33301 25.333 -21.333 38 -42 38
c-10.667 0 -20.167 -4.33301 -28.5 -13s-12.5 -20.334 -12.5 -35.001v-299l-194 -16v580h-60v72h60v68l194 16v-84h140v-72h-140v-95c12.667 14.667 25 25.667 37 33c24 14.667 51.667 22 83 22c50.667 0 90 -17.667 118 -53c36.667 -46 55 -121.667 55 -227z" />
    <glyph glyph-name="c157" horiz-adv-x="566" 
d="M475 669l-247 -113l-35 65l238 137zM566 8l-210 -16l-117 266l-2 -250l-194 -16v516l194 16v-238l92 238l207 -16l-105 -228z" />
    <glyph glyph-name="c158" horiz-adv-x="557" 
d="M514 8l-193.998 -16v326c0 11.333 -3.66699 20.333 -11 27s-17 10 -29 10s-21.833 -3.5 -29.5 -10.5s-11.5 -16.167 -11.5 -27.5v-309l-194 -16v580h-60v72h60v68l194 16v-84h140v-72h-140v-95c17.333 22 38.666 37.333 63.999 46c17.333 6 36 9 56 9
c43.333 0 78.666 -13.333 105.999 -40c32.667 -32 49 -78 49 -138v-346z" />
    <glyph glyph-name="nonbreakingspace" unicode="&#xa0;" horiz-adv-x="500" 
 />
    <glyph glyph-name="exclamdown" unicode="&#xa1;" horiz-adv-x="594" 
d="M509 851c-14.667 -41.333 -39 -73.5 -73 -96.5s-77.667 -34.5 -131 -34.5c-36 0 -68.667 6 -98 18c-52 21.333 -87 59 -105 113l101 21c9.33301 -22.667 25.333 -38.667 48 -48c14.667 -6 32.667 -9 54 -9c22.667 0 40.667 2.66699 54 8c22 8.66699 38 25 48 49zM621 686
l-259 -702l-237 16l74 184l-232 502l239 16l104 -293h4l82 293z" />
    <glyph glyph-name="cent" unicode="&#xa2;" horiz-adv-x="452" 
d="M430 693c-14 -40 -37.665 -70.833 -70.998 -92.5s-74.333 -32.5 -123 -32.5c-24.667 0 -46.334 2.33301 -65.001 7c-64.667 16.667 -107.667 56 -129 118l97 20c9.33301 -21.333 24.666 -36.333 45.999 -45c14.667 -6 31.667 -9 51 -9c21.333 0 38.333 2.66699 51 8
c20.667 8.66699 36 24 46 46zM466.002 516l-191 -675l-203 16l77 211l-168 440l195 24l60 -197l46 197z" />
    <glyph glyph-name="sterling" unicode="&#xa3;" horiz-adv-x="360" 
d="M308 261c0 -108.667 -21.667 -181.667 -65 -219c-32.667 -28 -90.334 -42 -173.001 -42h-50l-47 213c7.33301 -2 18.5 -4.33301 33.5 -7s27.167 -4 36.5 -4c20.667 0 34.334 7.33301 41.001 22c4.66699 10 7 26 7 48v414l217 16v-441z" />
    <glyph glyph-name="currency" unicode="&#xa4;" 
d="M539 546l-56 -55.9971c11.333 -14 20.333 -29.667 27 -47c10 -26 15 -56.667 15 -92c0 -31.333 -3.66699 -58.5 -11 -81.5s-18.333 -43.5 -33 -61.5l56 -56l-60 -60l-58 58c-16 -14.667 -35.333 -26.334 -58 -35.001s-50 -13 -82 -13c-26.667 0 -50 2.66699 -70 8
c-26.667 7.33301 -51.334 20 -74.001 38l-57 -57l-61 61l58 58c-16.667 19.333 -28.5 40.833 -35.5 64.5s-10.5 48.5 -10.5 74.5c0 33.333 4 61.166 12 83.499s19.333 41.5 34 57.5l-58 58l63 63l57 -57c14.667 11.333 31.334 20.666 50.001 27.999c28 10.667 59 16 93 16
c54.667 0 99 -14 133 -42l58 58zM405 351.003c0 42 -11.667 75.333 -35 100s-53.333 37 -90 37s-67.667 -12.667 -93 -38s-38 -59 -38 -101c0 -38 12.333 -70.333 37 -97s55.667 -40 93 -40c38 0 68.5 12.5 91.5 37.5s34.5 58.833 34.5 101.5z" />
    <glyph glyph-name="yen" unicode="&#xa5;" horiz-adv-x="483" 
d="M473 490h-205v-490l-217 -16v702h214v69l208 16v-281z" />
    <glyph glyph-name="brokenbar" unicode="&#xa6;" horiz-adv-x="222" 
d="M172 425h-122v261h122v-261zM172 0h-122v261h122v-261z" />
    <glyph glyph-name="section" unicode="&#xa7;" horiz-adv-x="534" 
d="M509 217c0 -41.333 -11.6689 -73.998 -35.002 -97.998c-18 -18.667 -41.667 -31.334 -71 -38.001c14.667 -13.333 27.167 -30 37.5 -50s15.5 -41.667 15.5 -65c0 -39.333 -15.333 -73 -46 -101c-36.667 -33.333 -87 -50 -151 -50c-58 0 -107 14.333 -147 43
c-24 17.333 -44.333 39.666 -61 66.999l119 79c7.33301 -16 16.333 -29.667 27 -41c16.667 -17.333 35.334 -26 56.001 -26c12.667 0 22.834 3.83301 30.501 11.5s11.5 15.5 11.5 23.5c0 15.333 -10 32.333 -30 51c-6 5.33301 -16 13.333 -30 24l-98 73
c-34.667 26 -60 49.333 -76 70c-24.667 31.333 -37 65 -37 101c0 29.333 9.83301 57.166 29.5 83.499s47.167 43.833 82.5 52.5l-9 7c-16.667 12.667 -28.667 28.334 -36 47.001s-11 38 -11 58c0 45.333 15.333 82.666 46 111.999c34.667 33.333 83.334 50 146.001 50
c39.333 0 72.666 -5.33301 99.999 -16c44.667 -17.333 84 -49 118 -95l-121 -89c-6.66699 24.667 -17.834 43.834 -33.501 57.501s-33.167 20.5 -52.5 20.5c-14 0 -24.833 -4.16699 -32.5 -12.5s-11.5 -16.833 -11.5 -25.5c0 -16 12 -33.333 36 -52
c17.333 -12.667 29.333 -21.667 36 -27l92 -69c38.667 -29.333 64.334 -53 77.001 -71c19.333 -27.333 29 -62.333 29 -105zM366.998 205.002c0 8 -1.83203 15.667 -5.49902 23s-10.834 15 -21.501 23l-129 96c-25.333 -10 -38 -25.333 -38 -46
c0 -7.33301 2.66699 -14.333 8 -21c3.33301 -4.66699 9 -9.66699 17 -15l133 -100c8 2 16 7.16699 24 15.5s12 16.5 12 24.5z" />
    <glyph glyph-name="dieresis" unicode="&#xa8;" horiz-adv-x="506" 
d="M460 790l-94 -83l-94 83l94 83zM234 790l-94 -83l-94 83l94 83zM491 190l-44 -190h-395v686h381l43 -184h-207v-68h135v-171h-135v-73h222z" />
    <glyph glyph-name="copyright" unicode="&#xa9;" horiz-adv-x="800" 
d="M773 343c0 -106 -37.001 -193 -111.001 -261c-71.333 -65.333 -158.666 -98 -261.999 -98c-102 0 -188 30.667 -258 92c-76.667 66.667 -115 155.667 -115 267c0 107.333 35.333 194 106 260s159.667 99 267 99c106 0 194.667 -33.167 266 -99.5s107 -152.833 107 -259.5
zM662.999 343c0 76 -23.334 139.33 -70.001 189.997c-49.333 53.333 -113.666 80 -192.999 80c-77.333 0 -140.5 -25.167 -189.5 -75.5s-73.5 -115.166 -73.5 -194.499c0 -75.333 24.5 -139.166 73.5 -191.499s112.167 -78.5 189.5 -78.5c76.667 0 139.667 25.333 189 76
s74 115.334 74 194.001zM553.998 188.997c-25.333 -18.667 -52 -31.667 -80 -39c-20 -5.33301 -43.333 -8 -70 -8c-65.333 0 -117.666 20.667 -156.999 62c-35.333 37.333 -53 82.333 -53 135c0 58 18.667 106 56 144c40.667 41.333 95.334 62 164.001 62
c23.333 0 45.833 -3 67.5 -9s44.167 -17.333 67.5 -34l-83 -109c-6.66699 6 -15 10.5 -25 13.5s-18.667 4.5 -26 4.5c-20.667 0 -37.834 -6.16699 -51.501 -18.5s-20.5 -27.833 -20.5 -46.5c0 -18 6.66699 -34 20 -48s31.333 -21 54 -21c19.333 0 36.666 6.33301 51.999 19z
" />
    <glyph glyph-name="ordfeminine" unicode="&#xaa;" horiz-adv-x="547" 
d="M526 203l-28.9971 -202.999c-16.667 -4 -35.834 -7.66699 -57.501 -11s-43.834 -5 -66.501 -5c-107.333 0 -192.833 33.167 -256.5 99.5s-95.5 150.833 -95.5 253.5c0 112 33.833 200.833 101.5 266.5s156.5 98.5 266.5 98.5c17.333 0 32.666 -1 45.999 -3
s31 -5.66699 53 -11l36 -199c-18 8 -37.167 14.333 -57.5 19s-39.166 7 -56.499 7c-34.667 0 -65.5 -8 -92.5 -24s-46.5 -39.333 -58.5 -70h200v-148h-203c9.33301 -30.667 28.166 -55.334 56.499 -74.001s59.5 -28 93.5 -28c19.333 0 38.833 2 58.5 6
s40.167 12.667 61.5 26z" />
    <glyph glyph-name="guillemotleft" unicode="&#xab;" horiz-adv-x="555" 
d="M517 91h-144l-112 167l112 167h144l-112 -167zM294 91h-144l-112 167l112 167h144l-112 -167z" />
    <glyph glyph-name="logicalnot" unicode="&#xac;" horiz-adv-x="600" 
d="M558 110h-122v201h-394v122h516v-323z" />
    <glyph glyph-name="minus" unicode="&#xad;" horiz-adv-x="333" 
d="M294 177h-254v162h254v-162z" />
    <glyph glyph-name="registered" unicode="&#xae;" horiz-adv-x="816" 
d="M789 343c0 -100 -37.167 -184.833 -111.5 -254.5s-164.166 -104.5 -269.499 -104.5s-195.166 34.833 -269.499 104.5s-111.5 154.5 -111.5 254.5s37.167 184.833 111.5 254.5s164.166 104.5 269.499 104.5s195.166 -34.833 269.499 -104.5s111.5 -154.5 111.5 -254.5z
M678 343c0 74.667 -26.333 138.334 -79 191.001s-116.334 79 -191.001 79s-138.334 -26.333 -191.001 -79s-79 -116.334 -79 -191.001s26.333 -138.334 79 -191.001s116.334 -79 191.001 -79s138.334 26.333 191.001 79s79 116.334 79 191.001zM600 171l-143 -17l-65 160
h-10v-137l-136 -11v364h203c48.667 0 86.667 -11.667 114 -35c24.667 -21.333 37 -48 37 -80c0 -23.333 -5.33301 -43.666 -16 -60.999c-12.667 -20.667 -31.667 -34.334 -57 -41.001zM452 384c0 14 -4.83301 25.166 -14.5 33.499s-22.5 12.5 -38.5 12.5h-17v-97h16
c18 0 31.5 4.83301 40.5 14.5s13.5 21.834 13.5 36.501z" />
    <glyph glyph-name="macron" unicode="&#xaf;" horiz-adv-x="429" 
d="M424 843l-95 -104l-101 104l94 112zM201 843l-94 -104l-102 104l95 112zM323 0l-217 -16v702l217 16v-702z" />
    <glyph glyph-name="degree" unicode="&#xb0;" horiz-adv-x="400" 
d="M343 560c0 -39.333 -14 -73 -42 -101s-61.667 -42 -101 -42c-40 0 -73.833 14.167 -101.5 42.5s-41.5 61.833 -41.5 100.5s14 72 42 100s61.667 42 101 42s73 -13.667 101 -41s42 -61 42 -101zM288 560c0 26.667 -7.83301 48.5 -23.5 65.5s-37.167 25.5 -64.5 25.5
c-23.333 0 -43.833 -8.16699 -61.5 -24.5s-26.5 -38.5 -26.5 -66.5c0 -25.333 8.33301 -47 25 -65s37.667 -27 63 -27c26 0 47.167 8.5 63.5 25.5s24.5 39.167 24.5 66.5z" />
    <glyph glyph-name="plusminus" unicode="&#xb1;" horiz-adv-x="600" 
d="M558 273h-197v-121h-122v121h-197v122h197v121h122v-121h197v-122zM558 0h-516v122h516v-122z" />
    <glyph glyph-name="twosuperior" unicode="&#xb2;" horiz-adv-x="333" 
d="M275 0l-217 -16v702l217 16v-702z" />
    <glyph glyph-name="threesuperior" unicode="&#xb3;" horiz-adv-x="280" 
d="M261 657l-117 -105l-125 105l117 113zM237 8l-194 -16v516l194 16v-516z" />
    <glyph glyph-name="acute" unicode="&#xb4;" horiz-adv-x="407" 
d="M397 352h-160v-352h-194v516h174v57l180 15v-236z" />
    <glyph glyph-name="mu" unicode="&#xb5;" horiz-adv-x="555" 
d="M512 0l-172.001 -7.99805v83c-6.66699 -26 -19 -47 -37 -63s-40 -25.333 -66 -28v-138l-194 -8v678l194 16v-328c0 -10.667 2 -19.334 6 -26.001c6.66699 -11.333 18.334 -17 35.001 -17c12.667 0 22.5 3.16699 29.5 9.5s10.5 17.166 10.5 32.499v313l194 16v-532z" />
    <glyph glyph-name="paragraph" unicode="&#xb6;" horiz-adv-x="620" 
d="M565 -172h-122v772h-97v-772h-122v523h-22c-61.333 0 -109.833 14.5 -145.5 43.5s-53.5 68.833 -53.5 119.5c0 58 19 101.167 57 129.5s94.333 42.5 169 42.5h336v-858z" />
    <glyph glyph-name="periodcentered" unicode="&#xb7;" horiz-adv-x="300" 
d="M252 258c0 -27.333 -9.16699 -51.165 -27.5 -71.498s-43.166 -30.5 -74.499 -30.5c-28 0 -52 9.66699 -72 29s-30 43.666 -30 72.999c0 28 10 52 30 72s44 30 72 30c27.333 0 51.166 -9.33301 71.499 -28s30.5 -43.334 30.5 -74.001z" />
    <glyph glyph-name="periodcentered" unicode="&#x2219;" horiz-adv-x="300" 
d="M252 258c0 -27.333 -9.16699 -51.165 -27.5 -71.498s-43.166 -30.5 -74.499 -30.5c-28 0 -52 9.66699 -72 29s-30 43.666 -30 72.999c0 28 10 52 30 72s44 30 72 30c27.333 0 51.166 -9.33301 71.499 -28s30.5 -43.334 30.5 -74.001z" />
    <glyph glyph-name="cedilla" unicode="&#xb8;" horiz-adv-x="579" 
d="M478 668l-85 -85l-85 85l85 85zM273 668l-85 -85l-85 85l85 85zM566 363l-277.999 -194.002c7.33301 -5.33301 15 -9.16602 23 -11.499s18.333 -3.5 31 -3.5c26 0 51.667 6 77 18c17.333 8 34 19 50 33l86 -147c-38.667 -28 -79.667 -48 -123 -60
c-33.333 -9.33301 -67.333 -14 -102 -14c-97.333 0 -174.666 28.333 -231.999 85c-52 51.333 -78 114.333 -78 189s26 138.334 78 191.001c54.667 55.333 124 83 208 83c55.333 0 106.166 -14.167 152.499 -42.5s82.166 -70.5 107.499 -126.5zM363.001 352.998
c-8 8.66699 -16.667 15 -26 19s-20 6 -32 6c-24 0 -44.5 -7.83301 -61.5 -23.5s-25.5 -38.5 -25.5 -68.5c0 -11.333 2.33301 -21 7 -29z" />
    <glyph glyph-name="onesuperior" unicode="&#xb9;" horiz-adv-x="1096" 
d="M1069 451c0 -46.667 -15.333 -86.333 -46 -119s-69 -49 -115 -49s-84.667 16 -116 48s-47 72 -47 120c0 46 15.5 85.833 46.5 119.5s69.833 50.5 116.5 50.5c46 0 84.333 -16.333 115 -49s46 -73 46 -121zM1069 61.001h-324v122h324v-122zM639 0.000976562h-194l-194 331
l-2 -331l-198 -16v702h200l189 -328l1 328l198 16v-702zM952 451.001c0 13.333 -3.66699 24.501 -11 33.501s-18.333 13.5 -33 13.5s-26.167 -4.5 -34.5 -13.5s-12.5 -20.167 -12.5 -33.5c0 -12.667 4.66699 -23.334 14 -32.001s20.333 -13 33 -13c12 0 22.333 4 31 12
s13 19 13 33z" />
    <glyph glyph-name="ordmasculine" unicode="&#xba;" horiz-adv-x="527" 
d="M506 49c-20 -16 -43.6689 -29.334 -71.002 -40.001c-41.333 -16.667 -85.333 -25 -132 -25c-85.333 0 -154.666 27.333 -207.999 82c-50 51.333 -75 113 -75 185c0 78 25.333 143.333 76 196c54.667 56.667 128.334 85 221.001 85c30.667 0 62.334 -4.5 95.001 -13.5
s63.667 -24.833 93 -47.5l-92 -125c-12 9.33301 -26.167 16.833 -42.5 22.5s-31.833 8.5 -46.5 8.5c-22 0 -41.333 -5.33301 -58 -16s-28.334 -26.667 -35.001 -48h144v-101h-144c4.66699 -20.667 15.167 -37.167 31.5 -49.5s36.833 -18.5 61.5 -18.5
c18.667 0 36.167 2.83301 52.5 8.5s31.833 13.834 46.5 24.501z" />
    <glyph glyph-name="guillemotright" unicode="&#xbb;" horiz-adv-x="555" 
d="M517 258l-112 -167h-144l112 167l-112 167h144zM294 258l-112 -167h-144l112 167l-112 167h144z" />
    <glyph glyph-name="onequarter" unicode="&#xbc;" horiz-adv-x="279" 
d="M260 657l-117 -105l-125 105l117 113zM236 53c0 -70 -18.333 -124.667 -55 -164s-86.667 -59 -150 -59h-42l-49 164h21c22 0 38.667 3.33301 50 10c20.667 12 31 33.667 31 65v439l194 16v-471z" />
    <glyph glyph-name="onehalf" unicode="&#xbd;" 
d="M523 214c0 -58.667 -16.667 -106.666 -50 -143.999c-51.333 -57.333 -138 -86 -260 -86c-36 0 -65.667 1.66699 -89 5c-31.333 6 -56.666 10.667 -75.999 14l-6 1v196c38 -8 70.167 -13.333 96.5 -16s51.166 -4 74.499 -4s40.333 1.33301 51 4
c22 5.33301 33 16.333 33 33c0 10.667 -5.33301 19.667 -16 27c-0.666992 0.666992 -26 10.667 -76 30c-68 26 -114 56 -138 90c-21.333 30 -32 67.667 -32 113c0 62 19 112.667 57 152c46.667 48.667 116.667 73 210 73c33.333 0 63.333 -1.16699 90 -3.5
s57.334 -7.16602 92.001 -14.499v-197c-34.667 10 -63.334 16.667 -86.001 20s-43 5 -61 5c-30 0 -51.667 -2.83301 -65 -8.5s-20 -13.834 -20 -24.501c0 -13.333 13 -25 39 -35l37 -14c66.667 -26.667 113.667 -53 141 -79c36 -34.667 54 -80.334 54 -137.001z" />
    <glyph glyph-name="threequarters" unicode="&#xbe;" horiz-adv-x="434" 
d="M412 148c0 -49.333 -19.3311 -89.001 -57.998 -119.001s-93.667 -45 -165 -45c-36 0 -67.5 1.83301 -94.5 5.5s-50.167 7.83398 -69.5 12.501v168c22 -6 42.667 -10.5 62 -13.5s35.666 -4.5 48.999 -4.5c24.667 0 41.5 2.33301 50.5 7s13.5 11 13.5 19
c0 11.333 -12.667 21.666 -38 30.999c-40 14.667 -64 24.667 -72 30c-26.667 16 -45.667 38 -57 66c-8 19.333 -12 41 -12 65c0 42 14.333 77.333 43 106c37.333 37.333 94 56 170 56c20 0 42.5 -1.5 67.5 -4.5s50.833 -7.5 77.5 -13.5v-166
c-17.333 5.33301 -36 9.33301 -56 12s-38 4 -54 4c-17.333 0 -29.666 -1.83301 -36.999 -5.5s-11 -9.5 -11 -17.5c0 -10 9.66699 -18.5 29 -25.5s38.666 -13.5 57.999 -19.5c27.333 -11.333 49.666 -26.333 66.999 -45c24.667 -27.333 37 -61.666 37 -102.999z" />
    <glyph glyph-name="questiondown" unicode="&#xbf;" horiz-adv-x="370" 
d="M365 668l-85 -85l-85 85l85 85zM175 668l-85 -85l-85 85l85 85zM282 8l-194 -16v516l194 16v-516z" />
    <glyph glyph-name="Agrave" unicode="&#xc0;" horiz-adv-x="667" 
d="M693 0l-235 -16l-34 119h-188l-35 -119l-227 16l226 686h262zM383 274l-53 216l-56 -216h109z" />
    <glyph glyph-name="Agrave" unicode="&#x410;" horiz-adv-x="667" 
d="M693 0l-235 -16l-34 119h-188l-35 -119l-227 16l226 686h262zM383 274l-53 216l-56 -216h109z" />
    <glyph glyph-name="Aacute" unicode="&#xc1;" horiz-adv-x="605" 
d="M590 212c0 -64.667 -22.5 -116.167 -67.5 -154.5s-102.833 -57.5 -173.5 -57.5h-297v686h440l43 -184h-266v-78h80c87.333 0 152 -25 194 -75c31.333 -37.333 47 -83 47 -137zM364 220c0 25.333 -9.33301 42.667 -28 52c-10 5.33301 -23.333 8 -40 8h-27v-120h27
c22 0 38.833 5.5 50.5 16.5s17.5 25.5 17.5 43.5z" />
    <glyph glyph-name="Aacute" unicode="&#x411;" horiz-adv-x="605" 
d="M590 212c0 -64.667 -22.5 -116.167 -67.5 -154.5s-102.833 -57.5 -173.5 -57.5h-297v686h440l43 -184h-266v-78h80c87.333 0 152 -25 194 -75c31.333 -37.333 47 -83 47 -137zM364 220c0 25.333 -9.33301 42.667 -28 52c-10 5.33301 -23.333 8 -40 8h-27v-120h27
c22 0 38.833 5.5 50.5 16.5s17.5 25.5 17.5 43.5z" />
    <glyph glyph-name="Acircumflex" unicode="&#xc2;" horiz-adv-x="612" 
d="M590 194c0 -57.333 -20.999 -103.999 -62.999 -139.999s-96.333 -54 -163 -54h-312v686h282c77.333 0 137 -18.667 179 -56c36.667 -32.667 55 -74.334 55 -125.001c0 -32 -7.33301 -60.5 -22 -85.5s-36.667 -44.5 -66 -58.5c37.333 -15.333 65.666 -39 84.999 -71
c16.667 -28 25 -60 25 -96zM351.001 477.001c0 16 -5.5 28.832 -16.5 38.499s-25.5 14.5 -43.5 14.5h-22v-107h26c17.333 0 31 5.33301 41 16s15 23.334 15 38.001zM364.001 220c0 17.333 -5.66602 31.667 -16.999 43s-28.333 17 -51 17h-27v-120h27
c25.333 0 43.666 7.33301 54.999 22c8.66699 11.333 13 24 13 38z" />
    <glyph glyph-name="Acircumflex" unicode="&#x412;" horiz-adv-x="612" 
d="M590 194c0 -57.333 -20.999 -103.999 -62.999 -139.999s-96.333 -54 -163 -54h-312v686h282c77.333 0 137 -18.667 179 -56c36.667 -32.667 55 -74.334 55 -125.001c0 -32 -7.33301 -60.5 -22 -85.5s-36.667 -44.5 -66 -58.5c37.333 -15.333 65.666 -39 84.999 -71
c16.667 -28 25 -60 25 -96zM351.001 477.001c0 16 -5.5 28.832 -16.5 38.499s-25.5 14.5 -43.5 14.5h-22v-107h26c17.333 0 31 5.33301 41 16s15 23.334 15 38.001zM364.001 220c0 17.333 -5.66602 31.667 -16.999 43s-28.333 17 -51 17h-27v-120h27
c25.333 0 43.666 7.33301 54.999 22c8.66699 11.333 13 24 13 38z" />
    <glyph glyph-name="Atilde" unicode="&#xc3;" horiz-adv-x="464" 
d="M464 484h-195v-484l-217 -16v702h363z" />
    <glyph glyph-name="Atilde" unicode="&#x413;" horiz-adv-x="464" 
d="M464 484h-195v-484l-217 -16v702h363z" />
    <glyph glyph-name="Adieresis" unicode="&#xc4;" horiz-adv-x="663" 
d="M648 -101l-203 -16v117h-227v-101l-203 -16v313h59l121 490h272l122 -490h59v-297zM387 186l-57 278h-4l-56 -278h117z" />
    <glyph glyph-name="Adieresis" unicode="&#x414;" horiz-adv-x="663" 
d="M648 -101l-203 -16v117h-227v-101l-203 -16v313h59l121 490h272l122 -490h59v-297zM387 186l-57 278h-4l-56 -278h117z" />
    <glyph glyph-name="Aring" unicode="&#xc5;" horiz-adv-x="506" 
d="M491 190l-44 -190h-395v686h381l43 -184h-207v-68h135v-171h-135v-73h222z" />
    <glyph glyph-name="Aring" unicode="&#x415;" horiz-adv-x="506" 
d="M491 190l-44 -190h-395v686h381l43 -184h-207v-68h135v-171h-135v-73h222z" />
    <glyph glyph-name="AE" unicode="&#xc6;" horiz-adv-x="963" 
d="M953 0l-244 -16l-117 358l-2 -342l-217 -16v358l-119 -358l-244 16l152 374l-125 312l233 16l101 -307l2 291l217 16v-307l103 307l233 -16l-125 -312z" />
    <glyph glyph-name="AE" unicode="&#x416;" horiz-adv-x="963" 
d="M953 0l-244 -16l-117 358l-2 -342l-217 -16v358l-119 -358l-244 16l152 374l-125 312l233 16l101 -307l2 291l217 16v-307l103 307l233 -16l-125 -312z" />
    <glyph glyph-name="Ccedilla" unicode="&#xc7;" horiz-adv-x="544" 
d="M514 202c0 -56.667 -19 -104.666 -57 -143.999c-48 -49.333 -119 -74 -213 -74c-41.333 0 -74.5 1.66699 -99.5 5s-63.167 11 -114.5 23l5 195c27.333 -10 56.666 -17.833 87.999 -23.5s65.333 -8.5 102 -8.5c28 0 48.667 6.33301 62 19c10.667 10 16 22.333 16 37
c0 12 -4.66699 22 -14 30c-12.667 10.667 -33.334 16 -62.001 16h-92v146h82c25.333 0 43.333 6 54 18c7.33301 8 11 18 11 30c0 11.333 -4.66699 21 -14 29c-12.667 10.667 -32.334 16 -59.001 16c-27.333 0 -55.666 -2.33301 -84.999 -7s-57 -11 -83 -19l21 180
c30.667 10 63.334 17.833 98.001 23.5s65.334 8.5 92.001 8.5c76 0 136 -19 180 -57c40.667 -35.333 61 -80.666 61 -135.999c0 -30.667 -6.66699 -58.334 -20 -83.001c-15.333 -28.667 -38.333 -50.667 -69 -66c34.667 -11.333 61.667 -30.833 81 -58.5
s29 -60.834 29 -99.501z" />
    <glyph glyph-name="Ccedilla" unicode="&#x417;" horiz-adv-x="544" 
d="M514 202c0 -56.667 -19 -104.666 -57 -143.999c-48 -49.333 -119 -74 -213 -74c-41.333 0 -74.5 1.66699 -99.5 5s-63.167 11 -114.5 23l5 195c27.333 -10 56.666 -17.833 87.999 -23.5s65.333 -8.5 102 -8.5c28 0 48.667 6.33301 62 19c10.667 10 16 22.333 16 37
c0 12 -4.66699 22 -14 30c-12.667 10.667 -33.334 16 -62.001 16h-92v146h82c25.333 0 43.333 6 54 18c7.33301 8 11 18 11 30c0 11.333 -4.66699 21 -14 29c-12.667 10.667 -32.334 16 -59.001 16c-27.333 0 -55.666 -2.33301 -84.999 -7s-57 -11 -83 -19l21 180
c30.667 10 63.334 17.833 98.001 23.5s65.334 8.5 92.001 8.5c76 0 136 -19 180 -57c40.667 -35.333 61 -80.666 61 -135.999c0 -30.667 -6.66699 -58.334 -20 -83.001c-15.333 -28.667 -38.333 -50.667 -69 -66c34.667 -11.333 61.667 -30.833 81 -58.5
s29 -60.834 29 -99.501z" />
    <glyph glyph-name="Egrave" unicode="&#xc8;" horiz-adv-x="723" 
d="M671 0l-208 -16v371h-4l-209 -355h-198v686l208 16v-354h4l199 338h208v-686z" />
    <glyph glyph-name="Egrave" unicode="&#x418;" horiz-adv-x="723" 
d="M671 0l-208 -16v371h-4l-209 -355h-198v686l208 16v-354h4l199 338h208v-686z" />
    <glyph glyph-name="Eacute" unicode="&#xc9;" horiz-adv-x="723" 
d="M581 859c-19.333 -58 -56.332 -98.334 -110.999 -121.001c-32 -13.333 -67.667 -20 -107 -20c-40 0 -75.333 6.33301 -106 19c-55.333 22.667 -92.333 63.334 -111 122.001l108 22c10.667 -25.333 27.667 -42.666 51 -51.999c14.667 -6 34 -9 58 -9
c23.333 0 42.666 3 57.999 9c23.333 9.33301 40.333 26.666 51 51.999zM671.001 -0.000976562l-208 -16v371h-4l-209 -355h-198v686l208 16v-354h4l199 338h208v-686z" />
    <glyph glyph-name="Eacute" unicode="&#x419;" horiz-adv-x="723" 
d="M581 859c-19.333 -58 -56.332 -98.334 -110.999 -121.001c-32 -13.333 -67.667 -20 -107 -20c-40 0 -75.333 6.33301 -106 19c-55.333 22.667 -92.333 63.334 -111 122.001l108 22c10.667 -25.333 27.667 -42.666 51 -51.999c14.667 -6 34 -9 58 -9
c23.333 0 42.666 3 57.999 9c23.333 9.33301 40.333 26.666 51 51.999zM671.001 -0.000976562l-208 -16v371h-4l-209 -355h-198v686l208 16v-354h4l199 338h208v-686z" />
    <glyph glyph-name="Ecircumflex" unicode="&#xca;" horiz-adv-x="637" 
d="M642 0l-244 -16l-127 358l-2 -342l-217 -16v702l217 16v-307l113 307l233 -16l-135 -312z" />
    <glyph glyph-name="Ecircumflex" unicode="&#x41a;" horiz-adv-x="637" 
d="M642 0l-244 -16l-127 358l-2 -342l-217 -16v702l217 16v-307l113 307l233 -16l-135 -312z" />
    <glyph glyph-name="Edieresis" unicode="&#xcb;" horiz-adv-x="598" 
d="M603 0l-218 -16l-89 465l-87 -465l-214 16l170 686h267z" />
    <glyph glyph-name="Edieresis" unicode="&#x41b;" horiz-adv-x="598" 
d="M603 0l-218 -16l-89 465l-87 -465l-214 16l170 686h267z" />
    <glyph glyph-name="Igrave" unicode="&#xcc;" horiz-adv-x="778" 
d="M768 0l-217 -16l-31 324l-133 -342l-128 341l-38 -323l-211 16l89 686h198l95 -254l94 254h197z" />
    <glyph glyph-name="Igrave" unicode="&#x41c;" horiz-adv-x="778" 
d="M768 0l-217 -16l-31 324l-133 -342l-128 341l-38 -323l-211 16l89 686h198l95 -254l94 254h197z" />
    <glyph glyph-name="Iacute" unicode="&#xcd;" horiz-adv-x="668" 
d="M616 0l-217 -16v272h-130v-256l-217 -16v702l217 16v-250h130v234l217 16v-702z" />
    <glyph glyph-name="Iacute" unicode="&#x41d;" horiz-adv-x="668" 
d="M616 0l-217 -16v272h-130v-256l-217 -16v702l217 16v-250h130v234l217 16v-702z" />
    <glyph glyph-name="Icircumflex" unicode="&#xce;" horiz-adv-x="812" 
d="M791 343c0 -99.333 -37.667 -184 -113 -254s-166 -105 -272 -105c-105.333 0 -195.833 34.833 -271.5 104.5s-113.5 154.5 -113.5 254.5s37.833 184.833 113.5 254.5s166.167 104.5 271.5 104.5s195.833 -34.833 271.5 -104.5s113.5 -154.5 113.5 -254.5zM563 343
c0 43.333 -15.333 80.333 -46 111s-67.667 46 -111 46s-80.333 -15 -111 -45s-46 -67.333 -46 -112c0 -43.333 15.333 -80.333 46 -111s67.667 -46 111 -46s80.333 15.333 111 46s46 67.667 46 111z" />
    <glyph glyph-name="Icircumflex" unicode="&#x41e;" horiz-adv-x="812" 
d="M791 343c0 -99.333 -37.667 -184 -113 -254s-166 -105 -272 -105c-105.333 0 -195.833 34.833 -271.5 104.5s-113.5 154.5 -113.5 254.5s37.833 184.833 113.5 254.5s166.167 104.5 271.5 104.5s195.833 -34.833 271.5 -104.5s113.5 -154.5 113.5 -254.5zM563 343
c0 43.333 -15.333 80.333 -46 111s-67.667 46 -111 46s-80.333 -15 -111 -45s-46 -67.333 -46 -112c0 -43.333 15.333 -80.333 46 -111s67.667 -46 111 -46s80.333 15.333 111 46s46 67.667 46 111z" />
    <glyph glyph-name="Idieresis" unicode="&#xcf;" horiz-adv-x="668" 
d="M616 0l-217 -16v506h-130v-490l-217 -16v702h564v-686z" />
    <glyph glyph-name="Idieresis" unicode="&#x41f;" horiz-adv-x="668" 
d="M616 0l-217 -16v506h-130v-490l-217 -16v702h564v-686z" />
    <glyph glyph-name="Eth" unicode="&#xd0;" horiz-adv-x="592" 
d="M572 440c0 -63.333 -20.334 -117.332 -61.001 -161.999c-47.333 -52 -114.666 -78 -201.999 -78h-40v-200l-217 -16v702h213c78 0 140.333 -11.333 187 -34c80 -38.667 120 -109.334 120 -212.001zM353.999 444.001c0 24.667 -8.33301 43.333 -25 56
c-13.333 10 -28.333 15 -45 15h-15v-150h15c21.333 0 38.333 7.83301 51 23.5s19 34.167 19 55.5z" />
    <glyph glyph-name="Eth" unicode="&#x420;" horiz-adv-x="592" 
d="M572 440c0 -63.333 -20.334 -117.332 -61.001 -161.999c-47.333 -52 -114.666 -78 -201.999 -78h-40v-200l-217 -16v702h213c78 0 140.333 -11.333 187 -34c80 -38.667 120 -109.334 120 -212.001zM353.999 444.001c0 24.667 -8.33301 43.333 -25 56
c-13.333 10 -28.333 15 -45 15h-15v-150h15c21.333 0 38.333 7.83301 51 23.5s19 34.167 19 55.5z" />
    <glyph glyph-name="Ntilde" unicode="&#xd1;" horiz-adv-x="536" 
d="M526 218l-29.001 -218c-42.667 -10.667 -84 -16 -124 -16c-101.333 0 -185.333 33.667 -252 101s-100 151.333 -100 252c0 104.667 34.333 191.667 103 261s157 104 265 104c18 0 34.5 -1.16699 49.5 -3.5s31.5 -5.83301 49.5 -10.5l36 -214c-38 17.333 -76 26 -114 26
c-55.333 0 -98.666 -16.333 -129.999 -49c-28 -28.667 -42 -64.667 -42 -108c0 -46 16 -83.667 48 -113s72 -44 120 -44c20 0 39.5 2 58.5 6s39.5 12.667 61.5 26z" />
    <glyph glyph-name="Ntilde" unicode="&#x421;" horiz-adv-x="536" 
d="M526 218l-29.001 -218c-42.667 -10.667 -84 -16 -124 -16c-101.333 0 -185.333 33.667 -252 101s-100 151.333 -100 252c0 104.667 34.333 191.667 103 261s157 104 265 104c18 0 34.5 -1.16699 49.5 -3.5s31.5 -5.83301 49.5 -10.5l36 -214c-38 17.333 -76 26 -114 26
c-55.333 0 -98.666 -16.333 -129.999 -49c-28 -28.667 -42 -64.667 -42 -108c0 -46 16 -83.667 48 -113s72 -44 120 -44c20 0 39.5 2 58.5 6s39.5 12.667 61.5 26z" />
    <glyph glyph-name="Ograve" unicode="&#xd2;" horiz-adv-x="497" 
d="M489 484h-128v-484l-217 -16v500h-149l46 202h448v-202z" />
    <glyph glyph-name="Ograve" unicode="&#x422;" horiz-adv-x="497" 
d="M489 484h-128v-484l-217 -16v500h-149l46 202h448v-202z" />
    <glyph glyph-name="Oacute" unicode="&#xd3;" horiz-adv-x="597" 
d="M624 686l-259 -702l-237 16l74 184l-232 502l239 16l104 -293h4l82 293z" />
    <glyph glyph-name="Oacute" unicode="&#x423;" horiz-adv-x="597" 
d="M624 686l-259 -702l-237 16l74 184l-232 502l239 16l104 -293h4l82 293z" />
    <glyph glyph-name="Ocircumflex" unicode="&#xd4;" horiz-adv-x="841" 
d="M820 343c0 -86.667 -30.667 -156.667 -92 -210c-56 -48.667 -122.667 -73 -200 -73v-100l-215 -16v116c-78 0 -145 24.333 -201 73c-60.667 52.667 -91 122.667 -91 210c0 94 32.667 166.667 98 218c54 42.667 118.667 64 194 64v101l215 16v-117
c75.333 0 140 -21.333 194 -64c65.333 -51.333 98 -124 98 -218zM610 343c0 29.333 -8.83105 52.833 -26.498 70.5s-39.834 26.5 -66.501 26.5v-195c25.333 0 47.166 9.16699 65.499 27.5s27.5 41.833 27.5 70.5zM324.002 245l-0.000976562 195
c-25.333 0 -47.166 -8.83301 -65.499 -26.5s-27.5 -41.167 -27.5 -70.5s9 -53 27 -71s40 -27 66 -27z" />
    <glyph glyph-name="Ocircumflex" unicode="&#x424;" horiz-adv-x="841" 
d="M820 343c0 -86.667 -30.667 -156.667 -92 -210c-56 -48.667 -122.667 -73 -200 -73v-100l-215 -16v116c-78 0 -145 24.333 -201 73c-60.667 52.667 -91 122.667 -91 210c0 94 32.667 166.667 98 218c54 42.667 118.667 64 194 64v101l215 16v-117
c75.333 0 140 -21.333 194 -64c65.333 -51.333 98 -124 98 -218zM610 343c0 29.333 -8.83105 52.833 -26.498 70.5s-39.834 26.5 -66.501 26.5v-195c25.333 0 47.166 9.16699 65.499 27.5s27.5 41.833 27.5 70.5zM324.002 245l-0.000976562 195
c-25.333 0 -47.166 -8.83301 -65.499 -26.5s-27.5 -41.167 -27.5 -70.5s9 -53 27 -71s40 -27 66 -27z" />
    <glyph glyph-name="Otilde" unicode="&#xd5;" horiz-adv-x="611" 
d="M622 0l-237 -16l-85 219l-80 -219l-231 16l175 357l-164 329l229 16l76 -198l74 198l225 -16l-161 -332z" />
    <glyph glyph-name="Otilde" unicode="&#x425;" horiz-adv-x="611" 
d="M622 0l-237 -16l-85 219l-80 -219l-231 16l175 357l-164 329l229 16l76 -198l74 198l225 -16l-161 -332z" />
    <glyph glyph-name="Odieresis" unicode="&#xd6;" horiz-adv-x="696" 
d="M676 -101l-203 -16v117h-421v686l217 16v-506h120v490l217 16v-506h70v-297z" />
    <glyph glyph-name="Odieresis" unicode="&#x426;" horiz-adv-x="696" 
d="M676 -101l-203 -16v117h-421v686l217 16v-506h120v490l217 16v-506h70v-297z" />
    <glyph glyph-name="multiply" unicode="&#xd7;" horiz-adv-x="656" 
d="M604 0l-216.999 -16v252c-30.667 -6 -54.5 -10.167 -71.5 -12.5s-34.5 -3.5 -52.5 -3.5c-68.667 0 -117.334 9.33301 -146.001 28c-51.333 33.333 -77 101 -77 203v235l217 16v-229c0 -18.667 2.66699 -32.667 8 -42c9.33301 -15.333 26.333 -23 51 -23
c10 0 21.333 1.16699 34 3.5s25 5.5 37 9.5v265l217 16v-702z" />
    <glyph glyph-name="multiply" unicode="&#x427;" horiz-adv-x="656" 
d="M604 0l-216.999 -16v252c-30.667 -6 -54.5 -10.167 -71.5 -12.5s-34.5 -3.5 -52.5 -3.5c-68.667 0 -117.334 9.33301 -146.001 28c-51.333 33.333 -77 101 -77 203v235l217 16v-229c0 -18.667 2.66699 -32.667 8 -42c9.33301 -15.333 26.333 -23 51 -23
c10 0 21.333 1.16699 34 3.5s25 5.5 37 9.5v265l217 16v-702z" />
    <glyph glyph-name="Oslash" unicode="&#xd8;" horiz-adv-x="929" 
d="M877 0h-825v686l217 16v-506h87v490l217 16v-506h87v490l217 16v-702z" />
    <glyph glyph-name="Oslash" unicode="&#x428;" horiz-adv-x="929" 
d="M877 0h-825v686l217 16v-506h87v490l217 16v-506h87v490l217 16v-702z" />
    <glyph glyph-name="Ugrave" unicode="&#xd9;" horiz-adv-x="967" 
d="M947 -101l-203 -16v117h-692v686l217 16v-506h87v490l217 16v-506h87v490l217 16v-506h70v-297z" />
    <glyph glyph-name="Ugrave" unicode="&#x429;" horiz-adv-x="967" 
d="M947 -101l-203 -16v117h-692v686l217 16v-506h87v490l217 16v-506h87v490l217 16v-506h70v-297z" />
    <glyph glyph-name="Uacute" unicode="&#xda;" horiz-adv-x="694" 
d="M673 232c0 -63.333 -20.999 -116.667 -62.999 -160c-46.667 -48 -109.334 -72 -188.001 -72h-287v490h-135l49 196h303v-222h50c90 0 159.333 -24.333 208 -73c42 -42 63 -95 63 -159zM447.001 231.999c0 18 -5.66699 32.001 -17 42.001c-13.333 12 -33.333 18 -60 18
h-18v-120h19c24.667 0 43.5 4.66699 56.5 14s19.5 24.666 19.5 45.999z" />
    <glyph glyph-name="Uacute" unicode="&#x42a;" horiz-adv-x="694" 
d="M673 232c0 -63.333 -20.999 -116.667 -62.999 -160c-46.667 -48 -109.334 -72 -188.001 -72h-287v490h-135l49 196h303v-222h50c90 0 159.333 -24.333 208 -73c42 -42 63 -95 63 -159zM447.001 231.999c0 18 -5.66699 32.001 -17 42.001c-13.333 12 -33.333 18 -60 18
h-18v-120h19c24.667 0 43.5 4.66699 56.5 14s19.5 24.666 19.5 45.999z" />
    <glyph glyph-name="Ucircumflex" unicode="&#xdb;" horiz-adv-x="897" 
d="M845 0l-217 -16v702l217 16v-702zM585 232c0 -62.667 -20.668 -116 -62.001 -160c-45.333 -48 -106.666 -72 -183.999 -72h-287v686l217 16v-238h50c88 0 156 -24.333 204 -73c41.333 -42 62 -95 62 -159zM358.999 232c0 17.333 -5 31 -15 41
c-12.667 12.667 -31.667 19 -57 19h-18v-120h19c22.667 0 40.167 5 52.5 15s18.5 25 18.5 45z" />
    <glyph glyph-name="Ucircumflex" unicode="&#x42b;" horiz-adv-x="897" 
d="M845 0l-217 -16v702l217 16v-702zM585 232c0 -62.667 -20.668 -116 -62.001 -160c-45.333 -48 -106.666 -72 -183.999 -72h-287v686l217 16v-238h50c88 0 156 -24.333 204 -73c41.333 -42 62 -95 62 -159zM358.999 232c0 17.333 -5 31 -15 41
c-12.667 12.667 -31.667 19 -57 19h-18v-120h19c22.667 0 40.167 5 52.5 15s18.5 25 18.5 45z" />
    <glyph glyph-name="Udieresis" unicode="&#xdc;" horiz-adv-x="611" 
d="M590 232c0 -63.333 -20.999 -116.667 -62.999 -160c-46.667 -48 -109.334 -72 -188.001 -72h-287v686l217 16v-238h50c90 0 159.333 -24.333 208 -73c42 -42 63 -95 63 -159zM364.001 231.999c0 18.667 -6.66699 33.333 -20 44s-32.333 16 -57 16h-18v-120h19
c24 0 42.667 5 56 15s20 25 20 45z" />
    <glyph glyph-name="Udieresis" unicode="&#x42c;" horiz-adv-x="611" 
d="M590 232c0 -63.333 -20.999 -116.667 -62.999 -160c-46.667 -48 -109.334 -72 -188.001 -72h-287v686l217 16v-238h50c90 0 159.333 -24.333 208 -73c42 -42 63 -95 63 -159zM364.001 231.999c0 18.667 -6.66699 33.333 -20 44s-32.333 16 -57 16h-18v-120h19
c24 0 42.667 5 56 15s20 25 20 45z" />
    <glyph glyph-name="Yacute" unicode="&#xdd;" horiz-adv-x="547" 
d="M526 337c0 -102.667 -31.8311 -187.168 -95.498 -253.501s-149.167 -99.5 -256.5 -99.5c-21.333 0 -40.5 0.833008 -57.5 2.5s-39.167 6.16699 -66.5 13.5l-29 203c19.333 -12 39.666 -20.333 60.999 -25s41 -7 59 -7c34 0 65.167 9.33301 93.5 28
s47.166 43.334 56.499 74.001h-203v148h200c-11.333 30 -30.833 53.167 -58.5 69.5s-58.5 24.5 -92.5 24.5c-14.667 0 -31.167 -1.5 -49.5 -4.5s-39.833 -10.167 -64.5 -21.5l36 199c19.333 4.66699 37.833 8.16699 55.5 10.5s32.167 3.5 43.5 3.5
c110 0 198.833 -32.833 266.5 -98.5s101.5 -154.5 101.5 -266.5z" />
    <glyph glyph-name="Yacute" unicode="&#x42d;" horiz-adv-x="547" 
d="M526 337c0 -102.667 -31.8311 -187.168 -95.498 -253.501s-149.167 -99.5 -256.5 -99.5c-21.333 0 -40.5 0.833008 -57.5 2.5s-39.167 6.16699 -66.5 13.5l-29 203c19.333 -12 39.666 -20.333 60.999 -25s41 -7 59 -7c34 0 65.167 9.33301 93.5 28
s47.166 43.334 56.499 74.001h-203v148h200c-11.333 30 -30.833 53.167 -58.5 69.5s-58.5 24.5 -92.5 24.5c-14.667 0 -31.167 -1.5 -49.5 -4.5s-39.833 -10.167 -64.5 -21.5l36 199c19.333 4.66699 37.833 8.16699 55.5 10.5s32.167 3.5 43.5 3.5
c110 0 198.833 -32.833 266.5 -98.5s101.5 -154.5 101.5 -266.5z" />
    <glyph glyph-name="Thorn" unicode="&#xde;" horiz-adv-x="1073" 
d="M1052 343c0 -99.333 -36.999 -184 -110.999 -254s-163 -105 -267 -105c-83.333 0 -156.666 22.667 -219.999 68c-70 50 -114.667 118.667 -134 206h-51v-256l-217 -16v702l217 16v-250h58c22 78 67.333 139.667 136 185c63.333 42 133.666 63 210.999 63
c103.333 0 192.166 -34.833 266.499 -104.5s111.5 -154.5 111.5 -254.5zM824.001 343c0 43.333 -14.668 80.333 -44.001 111s-64.666 46 -105.999 46s-76.666 -15.333 -105.999 -46s-44 -67.667 -44 -111c0 -44 14.5 -81.167 43.5 -111.5s64.5 -45.5 106.5 -45.5
c41.333 0 76.666 15.333 105.999 46s44 67.667 44 111z" />
    <glyph glyph-name="Thorn" unicode="&#x42e;" horiz-adv-x="1073" 
d="M1052 343c0 -99.333 -36.999 -184 -110.999 -254s-163 -105 -267 -105c-83.333 0 -156.666 22.667 -219.999 68c-70 50 -114.667 118.667 -134 206h-51v-256l-217 -16v702l217 16v-250h58c22 78 67.333 139.667 136 185c63.333 42 133.666 63 210.999 63
c103.333 0 192.166 -34.833 266.499 -104.5s111.5 -154.5 111.5 -254.5zM824.001 343c0 43.333 -14.668 80.333 -44.001 111s-64.666 46 -105.999 46s-76.666 -15.333 -105.999 -46s-44 -67.667 -44 -111c0 -44 14.5 -81.167 43.5 -111.5s64.5 -45.5 106.5 -45.5
c41.333 0 76.666 15.333 105.999 46s44 67.667 44 111z" />
    <glyph glyph-name="germandbls" unicode="&#xdf;" horiz-adv-x="651" 
d="M599 0l-216.999 -16v301h-4l-117 -300l-239 25l136 288c-35.333 14.667 -62.5 37.167 -81.5 67.5s-28.5 64.833 -28.5 103.5c0 88.667 38.333 150 115 184c49.333 22 115.666 33 198.999 33h237v-686zM382.001 330l0.000976562 165h-25
c-22.667 0 -41.834 -7.83301 -57.501 -23.5s-23.5 -35.167 -23.5 -58.5c0 -22.667 7.16699 -42.167 21.5 -58.5s32.833 -24.5 55.5 -24.5h29z" />
    <glyph glyph-name="germandbls" unicode="&#x42f;" horiz-adv-x="651" 
d="M599 0l-216.999 -16v301h-4l-117 -300l-239 25l136 288c-35.333 14.667 -62.5 37.167 -81.5 67.5s-28.5 64.833 -28.5 103.5c0 88.667 38.333 150 115 184c49.333 22 115.666 33 198.999 33h237v-686zM382.001 330l0.000976562 165h-25
c-22.667 0 -41.834 -7.83301 -57.501 -23.5s-23.5 -35.167 -23.5 -58.5c0 -22.667 7.16699 -42.167 21.5 -58.5s32.833 -24.5 55.5 -24.5h29z" />
    <glyph glyph-name="agrave" unicode="&#xe0;" horiz-adv-x="565" 
d="M522 0l-193 -16.001v56c-19.333 -22 -41.666 -37.333 -66.999 -46c-18.667 -6.66699 -40.334 -10 -65.001 -10c-53.333 0 -96.833 16.5 -130.5 49.5s-50.5 75.833 -50.5 128.5c0 50.667 16.833 92.834 50.5 126.501s77.167 50.5 130.5 50.5c22.667 0 43 -2.83301 61 -8.5
s37.667 -16.834 59 -33.501v37c0 16 -7.16699 29.333 -21.5 40s-36.5 16 -66.5 16c-51.333 0 -102 -9 -152 -27l35 146c30 8 61.833 13.833 95.5 17.5s61.167 5.5 82.5 5.5c70 0 126.167 -16.167 168.5 -48.5s63.5 -77.166 63.5 -134.499v-349zM322 167.999
c0 12 -4.83301 23.167 -14.5 33.5s-21.167 15.5 -34.5 15.5s-24.833 -4.83301 -34.5 -14.5s-14.5 -21.167 -14.5 -34.5c0 -12 4.5 -23.167 13.5 -33.5s20.833 -15.5 35.5 -15.5c16 0 28.167 5.16699 36.5 15.5s12.5 21.5 12.5 33.5z" />
    <glyph glyph-name="agrave" unicode="&#x430;" horiz-adv-x="565" 
d="M522 0l-193 -16.001v56c-19.333 -22 -41.666 -37.333 -66.999 -46c-18.667 -6.66699 -40.334 -10 -65.001 -10c-53.333 0 -96.833 16.5 -130.5 49.5s-50.5 75.833 -50.5 128.5c0 50.667 16.833 92.834 50.5 126.501s77.167 50.5 130.5 50.5c22.667 0 43 -2.83301 61 -8.5
s37.667 -16.834 59 -33.501v37c0 16 -7.16699 29.333 -21.5 40s-36.5 16 -66.5 16c-51.333 0 -102 -9 -152 -27l35 146c30 8 61.833 13.833 95.5 17.5s61.167 5.5 82.5 5.5c70 0 126.167 -16.167 168.5 -48.5s63.5 -77.166 63.5 -134.499v-349zM322 167.999
c0 12 -4.83301 23.167 -14.5 33.5s-21.167 15.5 -34.5 15.5s-24.833 -4.83301 -34.5 -14.5s-14.5 -21.167 -14.5 -34.5c0 -12 4.5 -23.167 13.5 -33.5s20.833 -15.5 35.5 -15.5c16 0 28.167 5.16699 36.5 15.5s12.5 21.5 12.5 33.5z" />
    <glyph glyph-name="aacute" unicode="&#xe1;" horiz-adv-x="644" 
d="M623 247c0 -70 -23 -129.666 -69 -178.999c-52 -56 -123 -84 -213 -84c-84 0 -153.333 23.333 -208 70c-74.667 63.333 -112 164 -112 302c0 74.667 12.667 139 38 193c36.667 78 98.667 137.667 186 179l230 109l101 -174l-303 -135c-36 -16 -62.667 -36.333 -80 -61
c-14.667 -20.667 -22 -42.334 -22 -65.001l-1 -21h4c19.333 36 45.833 63.5 79.5 82.5s69.5 28.5 107.5 28.5c68 0 126.667 -19.667 176 -59c57.333 -45.333 86 -107.333 86 -186zM412 247.001c0 22 -7.33301 40.333 -22 55s-33 22 -55 22
c-20.667 0 -38.667 -7.33301 -54 -22s-23 -33 -23 -55s7.33301 -40.333 22 -55s33 -22 55 -22s40.333 7.33301 55 22s22 33 22 55z" />
    <glyph glyph-name="aacute" unicode="&#x431;" horiz-adv-x="644" 
d="M623 247c0 -70 -23 -129.666 -69 -178.999c-52 -56 -123 -84 -213 -84c-84 0 -153.333 23.333 -208 70c-74.667 63.333 -112 164 -112 302c0 74.667 12.667 139 38 193c36.667 78 98.667 137.667 186 179l230 109l101 -174l-303 -135c-36 -16 -62.667 -36.333 -80 -61
c-14.667 -20.667 -22 -42.334 -22 -65.001l-1 -21h4c19.333 36 45.833 63.5 79.5 82.5s69.5 28.5 107.5 28.5c68 0 126.667 -19.667 176 -59c57.333 -45.333 86 -107.333 86 -186zM412 247.001c0 22 -7.33301 40.333 -22 55s-33 22 -55 22
c-20.667 0 -38.667 -7.33301 -54 -22s-23 -33 -23 -55s7.33301 -40.333 22 -55s33 -22 55 -22s40.333 7.33301 55 22s22 33 22 55z" />
    <glyph glyph-name="acircumflex" unicode="&#xe2;" horiz-adv-x="551" 
d="M524 157c0 -40 -13.999 -74.001 -41.999 -102.001c-36.667 -36.667 -92.334 -55 -167.001 -55h-272v516h243c56.667 0 100.667 -7 132 -21c50 -22 75 -62 75 -120c0 -44 -20 -77.667 -60 -101c28.667 -7.33301 51 -21.666 67 -42.999s24 -46 24 -74zM299.001 345.999
c0 10 -2.66699 18 -8 24c-8 8.66699 -21 13 -39 13h-25v-74h25c18 0 31 4.33301 39 13c5.33301 6 8 14 8 24zM313.001 173.999c0 13.333 -4.66699 23.5 -14 30.5s-24.333 10.5 -45 10.5h-27v-82h33c18 0 31.333 4 40 12s13 17.667 13 29z" />
    <glyph glyph-name="acircumflex" unicode="&#x432;" horiz-adv-x="551" 
d="M524 157c0 -40 -13.999 -74.001 -41.999 -102.001c-36.667 -36.667 -92.334 -55 -167.001 -55h-272v516h243c56.667 0 100.667 -7 132 -21c50 -22 75 -62 75 -120c0 -44 -20 -77.667 -60 -101c28.667 -7.33301 51 -21.666 67 -42.999s24 -46 24 -74zM299.001 345.999
c0 10 -2.66699 18 -8 24c-8 8.66699 -21 13 -39 13h-25v-74h25c18 0 31 4.33301 39 13c5.33301 6 8 14 8 24zM313.001 173.999c0 13.333 -4.66699 23.5 -14 30.5s-24.333 10.5 -45 10.5h-27v-82h33c18 0 31.333 4 40 12s13 17.667 13 29z" />
    <glyph glyph-name="atilde" unicode="&#xe3;" horiz-adv-x="404" 
d="M394 352h-157v-344l-194 -16v524h321z" />
    <glyph glyph-name="atilde" unicode="&#x433;" horiz-adv-x="404" 
d="M394 352h-157v-344l-194 -16v524h321z" />
    <glyph glyph-name="adieresis" unicode="&#xe4;" horiz-adv-x="545" 
d="M535 -95l-181 -16v111h-163v-95l-181 -16v256h44l90 371h257l90 -371h44v-240zM303 132l-33 221h-4l-33 -221h70z" />
    <glyph glyph-name="adieresis" unicode="&#x434;" horiz-adv-x="545" 
d="M535 -95l-181 -16v111h-163v-95l-181 -16v256h44l90 371h257l90 -371h44v-240zM303 132l-33 221h-4l-33 -221h70z" />
    <glyph glyph-name="aring" unicode="&#xe5;" horiz-adv-x="579" 
d="M566 363l-277.999 -194.002c7.33301 -5.33301 15 -9.16602 23 -11.499s18.333 -3.5 31 -3.5c26 0 51.667 6 77 18c17.333 8 34 19 50 33l86 -147c-38.667 -28 -79.667 -48 -123 -60c-33.333 -9.33301 -67.333 -14 -102 -14c-97.333 0 -174.666 28.333 -231.999 85
c-52 51.333 -78 114.333 -78 189s26 138.334 78 191.001c54.667 55.333 124 83 208 83c55.333 0 106.166 -14.167 152.499 -42.5s82.166 -70.5 107.499 -126.5zM363.001 352.998c-8 8.66699 -16.667 15 -26 19s-20 6 -32 6c-24 0 -44.5 -7.83301 -61.5 -23.5
s-25.5 -38.5 -25.5 -68.5c0 -11.333 2.33301 -21 7 -29z" />
    <glyph glyph-name="aring" unicode="&#x435;" horiz-adv-x="579" 
d="M566 363l-277.999 -194.002c7.33301 -5.33301 15 -9.16602 23 -11.499s18.333 -3.5 31 -3.5c26 0 51.667 6 77 18c17.333 8 34 19 50 33l86 -147c-38.667 -28 -79.667 -48 -123 -60c-33.333 -9.33301 -67.333 -14 -102 -14c-97.333 0 -174.666 28.333 -231.999 85
c-52 51.333 -78 114.333 -78 189s26 138.334 78 191.001c54.667 55.333 124 83 208 83c55.333 0 106.166 -14.167 152.499 -42.5s82.166 -70.5 107.499 -126.5zM363.001 352.998c-8 8.66699 -16.667 15 -26 19s-20 6 -32 6c-24 0 -44.5 -7.83301 -61.5 -23.5
s-25.5 -38.5 -25.5 -68.5c0 -11.333 2.33301 -21 7 -29z" />
    <glyph glyph-name="ae" unicode="&#xe6;" horiz-adv-x="832" 
d="M837 8l-210 -16l-112 266l-2 -250l-194 -16v266l-114 -266l-210 16l130 272l-95 228l207 16l80 -238l2 222l194 16v-238l82 238l207 -16l-95 -228z" />
    <glyph glyph-name="ae" unicode="&#x436;" horiz-adv-x="832" 
d="M837 8l-210 -16l-112 266l-2 -250l-194 -16v266l-114 -266l-210 16l130 272l-95 228l207 16l80 -238l2 222l194 16v-238l82 238l207 -16l-95 -228z" />
    <glyph glyph-name="ccedilla" unicode="&#xe7;" horiz-adv-x="480" 
d="M453 156c0 -46.667 -17.999 -85.3311 -53.999 -115.998c-43.333 -37.333 -106.333 -56 -189 -56c-26.667 0 -56.334 2.33301 -89.001 7s-63 10.667 -91 18l4 144c22.667 -8.66699 45.834 -15.5 69.501 -20.5s47.167 -7.5 70.5 -7.5c25.333 0 43 4.16699 53 12.5
s15 18.166 15 29.499c0 15.333 -7.83301 25.5 -23.5 30.5s-34.5 7.5 -56.5 7.5h-58v115h56c20.667 0 36.334 1.66699 47.001 5c17.333 5.33301 26 16 26 32c0 13.333 -5.83301 23 -17.5 29s-26.5 9 -44.5 9c-22.667 0 -47.667 -3.33301 -75 -10
c-20.667 -4.66699 -40.334 -11 -59.001 -19l27 143c32.667 8.66699 60.667 14.667 84 18s45 5 65 5c74.667 0 131.667 -15.333 171 -46c32.667 -25.333 49 -57.333 49 -96c0 -22.667 -5.66699 -43.667 -17 -63c-13.333 -22.667 -32 -39.334 -56 -50.001
c27.333 -8 49.666 -22.667 66.999 -44s26 -47 26 -77z" />
    <glyph glyph-name="ccedilla" unicode="&#x437;" horiz-adv-x="480" 
d="M453 156c0 -46.667 -17.999 -85.3311 -53.999 -115.998c-43.333 -37.333 -106.333 -56 -189 -56c-26.667 0 -56.334 2.33301 -89.001 7s-63 10.667 -91 18l4 144c22.667 -8.66699 45.834 -15.5 69.501 -20.5s47.167 -7.5 70.5 -7.5c25.333 0 43 4.16699 53 12.5
s15 18.166 15 29.499c0 15.333 -7.83301 25.5 -23.5 30.5s-34.5 7.5 -56.5 7.5h-58v115h56c20.667 0 36.334 1.66699 47.001 5c17.333 5.33301 26 16 26 32c0 13.333 -5.83301 23 -17.5 29s-26.5 9 -44.5 9c-22.667 0 -47.667 -3.33301 -75 -10
c-20.667 -4.66699 -40.334 -11 -59.001 -19l27 143c32.667 8.66699 60.667 14.667 84 18s45 5 65 5c74.667 0 131.667 -15.333 171 -46c32.667 -25.333 49 -57.333 49 -96c0 -22.667 -5.66699 -43.667 -17 -63c-13.333 -22.667 -32 -39.334 -56 -50.001
c27.333 -8 49.666 -22.667 66.999 -44s26 -47 26 -77z" />
    <glyph glyph-name="egrave" unicode="&#xe8;" horiz-adv-x="599" 
d="M556 9l-194 -17v256l-125 -248h-194v508l194 16v-256l125 248h194v-507z" />
    <glyph glyph-name="egrave" unicode="&#x438;" horiz-adv-x="599" 
d="M556 9l-194 -17v256l-125 -248h-194v508l194 16v-256l125 248h194v-507z" />
    <glyph glyph-name="eacute" unicode="&#xe9;" horiz-adv-x="600" 
d="M506 701c-18.667 -54.667 -53.9971 -92.667 -105.997 -114c-30.667 -12.667 -64 -19 -100 -19c-24.667 0 -47.667 2.66699 -69 8c-68.667 17.333 -114.334 59 -137.001 125l103 21c9.33301 -23.333 25.333 -39.333 48 -48c15.333 -6 33.666 -9 54.999 -9
c23.333 0 41.666 2.66699 54.999 8c22 8.66699 38 25 48 49zM557.003 9l-194 -17v256l-125 -248h-195v508l194 16v-256l126 248h194v-507z" />
    <glyph glyph-name="eacute" unicode="&#x439;" horiz-adv-x="600" 
d="M506 701c-18.667 -54.667 -53.9971 -92.667 -105.997 -114c-30.667 -12.667 -64 -19 -100 -19c-24.667 0 -47.667 2.66699 -69 8c-68.667 17.333 -114.334 59 -137.001 125l103 21c9.33301 -23.333 25.333 -39.333 48 -48c15.333 -6 33.666 -9 54.999 -9
c23.333 0 41.666 2.66699 54.999 8c22 8.66699 38 25 48 49zM557.003 9l-194 -17v256l-125 -248h-195v508l194 16v-256l126 248h194v-507z" />
    <glyph glyph-name="ecircumflex" unicode="&#xea;" horiz-adv-x="566" 
d="M566 8l-210 -16l-117 266l-2 -250l-194 -16v516l194 16v-238l92 238l207 -16l-105 -228z" />
    <glyph glyph-name="ecircumflex" unicode="&#x43a;" horiz-adv-x="566" 
d="M566 8l-210 -16l-117 266l-2 -250l-194 -16v516l194 16v-238l92 238l207 -16l-105 -228z" />
    <glyph glyph-name="edieresis" unicode="&#xeb;" horiz-adv-x="507" 
d="M504 0l-197 -16l-57 354h-4l-51 -354l-192 16l120 516h261z" />
    <glyph glyph-name="edieresis" unicode="&#x43b;" horiz-adv-x="507" 
d="M504 0l-197 -16l-57 354h-4l-51 -354l-192 16l120 516h261z" />
    <glyph glyph-name="igrave" unicode="&#xec;" horiz-adv-x="658" 
d="M658 8l-191 -16l-24 249l-114 -265l-112 265l-26 -249l-191 16l74 508h175l80 -233l80 233h175z" />
    <glyph glyph-name="igrave" unicode="&#x43c;" horiz-adv-x="658" 
d="M658 8l-191 -16l-24 249l-114 -265l-112 265l-26 -249l-191 16l74 508h175l80 -233l80 233h175z" />
    <glyph glyph-name="iacute" unicode="&#xed;" horiz-adv-x="555" 
d="M512 8l-194 -16v201h-81v-185l-194 -16v516l194 16v-186h81v170l194 16v-516z" />
    <glyph glyph-name="iacute" unicode="&#x43d;" horiz-adv-x="555" 
d="M512 8l-194 -16v201h-81v-185l-194 -16v516l194 16v-186h81v170l194 16v-516z" />
    <glyph glyph-name="icircumflex" unicode="&#xee;" horiz-adv-x="620" 
d="M599 258c0 -75.333 -28.167 -139.832 -84.5 -193.499s-124.5 -80.5 -204.5 -80.5c-78.667 0 -146.5 26.833 -203.5 80.5s-85.5 118.167 -85.5 193.5c0 69.333 24.667 130.666 74 183.999c55.333 60 127 90 215 90c80 0 148.167 -26.5 204.5 -79.5
s84.5 -117.833 84.5 -194.5zM388 258.001c0 22.667 -7.33301 41.667 -22 57s-33.334 23 -56.001 23c-22 0 -40.5 -7.83301 -55.5 -23.5s-22.5 -34.5 -22.5 -56.5c0 -22.667 7.33301 -41.667 22 -57s33.334 -23 56.001 -23c22 0 40.5 7.83301 55.5 23.5s22.5 34.5 22.5 56.5z
" />
    <glyph glyph-name="icircumflex" unicode="&#x43e;" horiz-adv-x="620" 
d="M599 258c0 -75.333 -28.167 -139.832 -84.5 -193.499s-124.5 -80.5 -204.5 -80.5c-78.667 0 -146.5 26.833 -203.5 80.5s-85.5 118.167 -85.5 193.5c0 69.333 24.667 130.666 74 183.999c55.333 60 127 90 215 90c80 0 148.167 -26.5 204.5 -79.5
s84.5 -117.833 84.5 -194.5zM388 258.001c0 22.667 -7.33301 41.667 -22 57s-33.334 23 -56.001 23c-22 0 -40.5 -7.83301 -55.5 -23.5s-22.5 -34.5 -22.5 -56.5c0 -22.667 7.33301 -41.667 22 -57s33.334 -23 56.001 -23c22 0 40.5 7.83301 55.5 23.5s22.5 34.5 22.5 56.5z
" />
    <glyph glyph-name="idieresis" unicode="&#xef;" horiz-adv-x="550" 
d="M507 8l-194 -16v379h-76v-363l-194 -16v524h464v-508z" />
    <glyph glyph-name="idieresis" unicode="&#x43f;" horiz-adv-x="550" 
d="M507 8l-194 -16v379h-76v-363l-194 -16v524h464v-508z" />
    <glyph glyph-name="eth" unicode="&#xf0;" horiz-adv-x="624" 
d="M603 260c0 -81.333 -27 -148.668 -81 -202.001c-50 -49.333 -106.333 -74 -169 -74c-28 0 -53 4.66699 -75 14c-15.333 6.66699 -29 15.334 -41 26.001v-178l-194 -16v678l186 15v-52h4c14 16.667 29.667 30 47 40c24.667 14 52 21 82 21
c62.667 0 117.667 -24.667 165 -74c50.667 -52.667 76 -118.667 76 -198zM392 257.998c0 22 -7.16602 40.833 -21.499 56.5s-32.833 23.5 -55.5 23.5s-41.334 -7.66699 -56.001 -23s-22 -34.333 -22 -57c0 -22 7.5 -40.833 22.5 -56.5s33.5 -23.5 55.5 -23.5
c22.667 0 41.167 7.83301 55.5 23.5s21.5 34.5 21.5 56.5z" />
    <glyph glyph-name="eth" unicode="&#x440;" horiz-adv-x="624" 
d="M603 260c0 -81.333 -27 -148.668 -81 -202.001c-50 -49.333 -106.333 -74 -169 -74c-28 0 -53 4.66699 -75 14c-15.333 6.66699 -29 15.334 -41 26.001v-178l-194 -16v678l186 15v-52h4c14 16.667 29.667 30 47 40c24.667 14 52 21 82 21
c62.667 0 117.667 -24.667 165 -74c50.667 -52.667 76 -118.667 76 -198zM392 257.998c0 22 -7.16602 40.833 -21.499 56.5s-32.833 23.5 -55.5 23.5s-41.334 -7.66699 -56.001 -23s-22 -34.333 -22 -57c0 -22 7.5 -40.833 22.5 -56.5s33.5 -23.5 55.5 -23.5
c22.667 0 41.167 7.83301 55.5 23.5s21.5 34.5 21.5 56.5z" />
    <glyph glyph-name="ntilde" unicode="&#xf1;" horiz-adv-x="524" 
d="M514 52c-33.333 -26.667 -69.666 -45.332 -108.999 -55.999c-29.333 -8 -62.333 -12 -99 -12c-88.667 0 -159.667 28 -213 84c-48 50.667 -72 111.667 -72 183c0 78.667 25.333 144 76 196c55.333 56.667 129.666 85 222.999 85c42 0 80.667 -7 116 -21
c24 -9.33301 48 -23.333 72 -42l-118 -155c-20 16 -43 24 -69 24s-47.333 -7.33301 -64 -22s-25 -33 -25 -55c0 -22.667 8.16699 -42.167 24.5 -58.5s38.5 -24.5 66.5 -24.5c12.667 0 25 2.16699 37 6.5s23 11.166 33 20.499z" />
    <glyph glyph-name="ntilde" unicode="&#x441;" horiz-adv-x="524" 
d="M514 52c-33.333 -26.667 -69.666 -45.332 -108.999 -55.999c-29.333 -8 -62.333 -12 -99 -12c-88.667 0 -159.667 28 -213 84c-48 50.667 -72 111.667 -72 183c0 78.667 25.333 144 76 196c55.333 56.667 129.666 85 222.999 85c42 0 80.667 -7 116 -21
c24 -9.33301 48 -23.333 72 -42l-118 -155c-20 16 -43 24 -69 24s-47.333 -7.33301 -64 -22s-25 -33 -25 -55c0 -22.667 8.16699 -42.167 24.5 -58.5s38.5 -24.5 66.5 -24.5c12.667 0 25 2.16699 37 6.5s23 11.166 33 20.499z" />
    <glyph glyph-name="ograve" unicode="&#xf2;" horiz-adv-x="420" 
d="M413 352h-102v-344l-194 -16v360h-110l30 164h376v-164z" />
    <glyph glyph-name="ograve" unicode="&#x442;" horiz-adv-x="420" 
d="M413 352h-102v-344l-194 -16v360h-110l30 164h376v-164z" />
    <glyph glyph-name="oacute" unicode="&#xf3;" horiz-adv-x="452" 
d="M466 508l-191 -667l-203 16l77 211l-168 440l195 16l60 -197l46 197z" />
    <glyph glyph-name="oacute" unicode="&#x443;" horiz-adv-x="452" 
d="M466 508l-191 -667l-203 16l77 211l-168 440l195 16l60 -197l46 197z" />
    <glyph glyph-name="ocircumflex" unicode="&#xf4;" horiz-adv-x="788" 
d="M767 258c0 -78 -26.3311 -141.333 -78.998 -190s-118.334 -73 -197.001 -73v-165l-194 -16v181c-79.333 0 -145.166 24 -197.499 72s-78.5 111.667 -78.5 191c0 72 23.667 132.667 71 182c51.333 53.333 119.666 80 204.999 80v132l194 16v-148
c85.333 0 153.666 -26.333 204.999 -79c47.333 -48.667 71 -109.667 71 -183zM556.002 258c0 28.667 -6.83203 51.166 -20.499 67.499s-32.834 24.5 -57.501 24.5v-185c24 0 43 8.33301 57 25s21 39.334 21 68.001zM310.003 164.999v184.999
c-24.667 0 -43.834 -8.16699 -57.501 -24.5s-20.5 -38.833 -20.5 -67.5c0 -29.333 6.83301 -52.166 20.5 -68.499s32.834 -24.5 57.501 -24.5z" />
    <glyph glyph-name="ocircumflex" unicode="&#x444;" horiz-adv-x="788" 
d="M767 258c0 -78 -26.3311 -141.333 -78.998 -190s-118.334 -73 -197.001 -73v-165l-194 -16v181c-79.333 0 -145.166 24 -197.499 72s-78.5 111.667 -78.5 191c0 72 23.667 132.667 71 182c51.333 53.333 119.666 80 204.999 80v132l194 16v-148
c85.333 0 153.666 -26.333 204.999 -79c47.333 -48.667 71 -109.667 71 -183zM556.002 258c0 28.667 -6.83203 51.166 -20.499 67.499s-32.834 24.5 -57.501 24.5v-185c24 0 43 8.33301 57 25s21 39.334 21 68.001zM310.003 164.999v184.999
c-24.667 0 -43.834 -8.16699 -57.501 -24.5s-20.5 -38.833 -20.5 -67.5c0 -29.333 6.83301 -52.166 20.5 -68.499s32.834 -24.5 57.501 -24.5z" />
    <glyph glyph-name="otilde" unicode="&#xf5;" horiz-adv-x="515" 
d="M523 8l-215 -16l-51 162l-54 -162l-211 16l119 262l-111 238l208 16l47 -150l43 150l207 -16l-107 -238z" />
    <glyph glyph-name="otilde" unicode="&#x445;" horiz-adv-x="515" 
d="M523 8l-215 -16l-51 162l-54 -162l-211 16l119 262l-111 238l208 16l47 -150l43 150l207 -16l-107 -238z" />
    <glyph glyph-name="odieresis" unicode="&#xf6;" horiz-adv-x="572" 
d="M557 -95l-181 -16v111h-333v508l194 16v-379h76v363l194 16v-379h50v-240z" />
    <glyph glyph-name="odieresis" unicode="&#x446;" horiz-adv-x="572" 
d="M557 -95l-181 -16v111h-333v508l194 16v-379h76v363l194 16v-379h50v-240z" />
    <glyph glyph-name="divide" unicode="&#xf7;" horiz-adv-x="537" 
d="M494 8l-194 -16.001v186c-22 -5.33301 -42.833 -9.16602 -62.5 -11.499s-38.167 -3.5 -55.5 -3.5c-50 0 -87.833 12.5 -113.5 37.5s-38.5 61.167 -38.5 108.5v199l194 16v-176c0 -13.333 1.83301 -23.333 5.5 -30s13.167 -10 28.5 -10c10.667 0 24.667 2.66699 42 8v192
l194 16v-516z" />
    <glyph glyph-name="divide" unicode="&#x447;" horiz-adv-x="537" 
d="M494 8l-194 -16.001v186c-22 -5.33301 -42.833 -9.16602 -62.5 -11.499s-38.167 -3.5 -55.5 -3.5c-50 0 -87.833 12.5 -113.5 37.5s-38.5 61.167 -38.5 108.5v199l194 16v-176c0 -13.333 1.83301 -23.333 5.5 -30s13.167 -10 28.5 -10c10.667 0 24.667 2.66699 42 8v192
l194 16v-516z" />
    <glyph glyph-name="oslash" unicode="&#xf8;" horiz-adv-x="780" 
d="M737 0h-694v508l194 16v-379h56v363l194 16v-379h56v363l194 16v-524z" />
    <glyph glyph-name="oslash" unicode="&#x448;" horiz-adv-x="780" 
d="M737 0h-694v508l194 16v-379h56v363l194 16v-379h56v363l194 16v-524z" />
    <glyph glyph-name="ugrave" unicode="&#xf9;" horiz-adv-x="802" 
d="M787 -95l-181 -16v111h-563v508l194 16v-379h56v363l194 16v-379h56v363l194 16v-379h50v-240z" />
    <glyph glyph-name="ugrave" unicode="&#x449;" horiz-adv-x="802" 
d="M787 -95l-181 -16v111h-563v508l194 16v-379h56v363l194 16v-379h56v363l194 16v-379h50v-240z" />
    <glyph glyph-name="uacute" unicode="&#xfa;" horiz-adv-x="624" 
d="M604 182c0 -51.333 -18 -93.668 -54 -127.001c-40 -36.667 -96 -55 -168 -55h-271v352h-101l30 164h265v-164h52c64.667 0 116 -8.33301 154 -25c62 -27.333 93 -75.666 93 -144.999zM393 181.998c0 17.333 -7.66797 29.333 -23.001 36c-9.33301 4 -22 6 -38 6h-27v-86
h28c22.667 0 38.334 4.16699 47.001 12.5s13 18.833 13 31.5z" />
    <glyph glyph-name="uacute" unicode="&#x44a;" horiz-adv-x="624" 
d="M604 182c0 -51.333 -18 -93.668 -54 -127.001c-40 -36.667 -96 -55 -168 -55h-271v352h-101l30 164h265v-164h52c64.667 0 116 -8.33301 154 -25c62 -27.333 93 -75.666 93 -144.999zM393 181.998c0 17.333 -7.66797 29.333 -23.001 36c-9.33301 4 -22 6 -38 6h-27v-86
h28c22.667 0 38.334 4.16699 47.001 12.5s13 18.833 13 31.5z" />
    <glyph glyph-name="ucircumflex" unicode="&#xfb;" horiz-adv-x="793" 
d="M750 8l-194 -16v516l194 16v-516zM526 182c0 -52 -18.001 -94.668 -54.001 -128.001c-39.333 -36 -93.666 -54 -162.999 -54h-266v508l194 16v-172h47c61.333 0 111 -8.33301 149 -25c62 -27.333 93 -75.666 93 -144.999zM319.999 181.999
c0 18 -7.66797 30.333 -23.001 37c-9.33301 4 -22 6 -38 6h-22v-87h23c22.667 0 38.334 4.16699 47.001 12.5s13 18.833 13 31.5z" />
    <glyph glyph-name="ucircumflex" unicode="&#x44b;" horiz-adv-x="793" 
d="M750 8l-194 -16v516l194 16v-516zM526 182c0 -52 -18.001 -94.668 -54.001 -128.001c-39.333 -36 -93.666 -54 -162.999 -54h-266v508l194 16v-172h47c61.333 0 111 -8.33301 149 -25c62 -27.333 93 -75.666 93 -144.999zM319.999 181.999
c0 18 -7.66797 30.333 -23.001 37c-9.33301 4 -22 6 -38 6h-22v-87h23c22.667 0 38.334 4.16699 47.001 12.5s13 18.833 13 31.5z" />
    <glyph glyph-name="udieresis" unicode="&#xfc;" 
d="M536 182c0 -52 -18.667 -94.667 -56 -128c-40.667 -36 -96 -54 -166 -54h-271v508l194 16v-172h52c64 0 114.667 -8 152 -24c63.333 -27.333 95 -76 95 -146zM325 182c0 18 -7.66797 30.333 -23.001 37c-9.33301 4 -22 6 -38 6h-27v-87h28
c22.667 0 38.334 4.16699 47.001 12.5s13 18.833 13 31.5z" />
    <glyph glyph-name="udieresis" unicode="&#x44c;" 
d="M536 182c0 -52 -18.667 -94.667 -56 -128c-40.667 -36 -96 -54 -166 -54h-271v508l194 16v-172h52c64 0 114.667 -8 152 -24c63.333 -27.333 95 -76 95 -146zM325 182c0 18 -7.66797 30.333 -23.001 37c-9.33301 4 -22 6 -38 6h-27v-87h28
c22.667 0 38.334 4.16699 47.001 12.5s13 18.833 13 31.5z" />
    <glyph glyph-name="yacute" unicode="&#xfd;" horiz-adv-x="527" 
d="M506 251c0 -72 -24.6709 -133.333 -74.0039 -184c-54 -55.333 -123.667 -83 -209 -83c-47.333 0 -91 8 -131 24c-26.667 10.667 -50.667 24.334 -72 41.001l83 128c14.667 -10.667 29.834 -18.834 45.501 -24.501s33.5 -8.5 53.5 -8.5c24 0 44.333 6.33301 61 19
s27.334 29 32.001 49h-144v101h144c-6 20.667 -17.667 36.5 -35 47.5s-36.666 16.5 -57.999 16.5c-16 0 -31.667 -2.66699 -47 -8s-29.333 -13 -42 -23l-92 125c28 21.333 59.167 36.833 93.5 46.5s65.833 14.5 94.5 14.5c92.667 0 166.334 -28.333 221.001 -85
c50.667 -52.667 76 -118 76 -196z" />
    <glyph glyph-name="yacute" unicode="&#x44d;" horiz-adv-x="527" 
d="M506 251c0 -72 -24.6709 -133.333 -74.0039 -184c-54 -55.333 -123.667 -83 -209 -83c-47.333 0 -91 8 -131 24c-26.667 10.667 -50.667 24.334 -72 41.001l83 128c14.667 -10.667 29.834 -18.834 45.501 -24.501s33.5 -8.5 53.5 -8.5c24 0 44.333 6.33301 61 19
s27.334 29 32.001 49h-144v101h144c-6 20.667 -17.667 36.5 -35 47.5s-36.666 16.5 -57.999 16.5c-16 0 -31.667 -2.66699 -47 -8s-29.333 -13 -42 -23l-92 125c28 21.333 59.167 36.833 93.5 46.5s65.833 14.5 94.5 14.5c92.667 0 166.334 -28.333 221.001 -85
c50.667 -52.667 76 -118 76 -196z" />
    <glyph glyph-name="thorn" unicode="&#xfe;" horiz-adv-x="853" 
d="M832 258c0 -76 -27.6689 -140.667 -83.002 -194s-122.666 -80 -201.999 -80c-61.333 0 -116 16.667 -164 50c-54.667 38 -89.667 91 -105 159h-41v-185l-194 -16v516l194 16v-186h46c17.333 65.333 53 115.333 107 150c46 29.333 98.333 44 157 44
c78.667 0 145.834 -26.5 201.501 -79.5s83.5 -117.833 83.5 -194.5zM620.998 258c0 25.333 -7.66797 45 -23.001 59s-32.666 21 -51.999 21c-21.333 0 -38.833 -7.5 -52.5 -22.5s-20.5 -34.167 -20.5 -57.5c0 -22.667 7 -41.667 21 -57s31.667 -23 53 -23s39 7.66699 53 23
s21 34.333 21 57z" />
    <glyph glyph-name="thorn" unicode="&#x44e;" horiz-adv-x="853" 
d="M832 258c0 -76 -27.6689 -140.667 -83.002 -194s-122.666 -80 -201.999 -80c-61.333 0 -116 16.667 -164 50c-54.667 38 -89.667 91 -105 159h-41v-185l-194 -16v516l194 16v-186h46c17.333 65.333 53 115.333 107 150c46 29.333 98.333 44 157 44
c78.667 0 145.834 -26.5 201.501 -79.5s83.5 -117.833 83.5 -194.5zM620.998 258c0 25.333 -7.66797 45 -23.001 59s-32.666 21 -51.999 21c-21.333 0 -38.833 -7.5 -52.5 -22.5s-20.5 -34.167 -20.5 -57.5c0 -22.667 7 -41.667 21 -57s31.667 -23 53 -23s39 7.66699 53 23
s21 34.333 21 57z" />
    <glyph glyph-name="ydieresis" unicode="&#xff;" horiz-adv-x="562" 
d="M519 8l-193.999 -15.999v220h-7l-88 -220l-210 16l105 204c-32.667 10 -57.334 28.167 -74.001 54.5s-25 55.833 -25 88.5c0 39.333 14.333 73.666 43 102.999c38 38.667 94.333 58 169 58h281v-508zM325.001 246.001l-0.000976562 124.999h-18
c-21.333 0 -38.333 -5.66699 -51 -17s-19 -25.666 -19 -42.999c0 -18 5 -32.667 15 -44c12.667 -14 31.334 -21 56.001 -21h17z" />
    <glyph glyph-name="ydieresis" unicode="&#x44f;" horiz-adv-x="562" 
d="M519 8l-193.999 -15.999v220h-7l-88 -220l-210 16l105 204c-32.667 10 -57.334 28.167 -74.001 54.5s-25 55.833 -25 88.5c0 39.333 14.333 73.666 43 102.999c38 38.667 94.333 58 169 58h281v-508zM325.001 246.001l-0.000976562 124.999h-18
c-21.333 0 -38.333 -5.66699 -51 -17s-19 -25.666 -19 -42.999c0 -18 5 -32.667 15 -44c12.667 -14 31.334 -21 56.001 -21h17z" />
    <glyph glyph-name="OE" unicode="&#x152;" horiz-adv-x="953" 
d="M932 232c0 -62.667 -20.668 -116 -62.001 -160c-45.333 -48 -106.666 -72 -183.999 -72h-287v262h-130v-262l-217 -16v702l217 16v-244h130v228l217 16v-244h50c88.667 0 156.667 -23.333 204 -70c41.333 -40.667 62 -92.667 62 -156zM705.999 229c0 16 -5 29 -15 39
c-12 12 -31 18 -57 18h-18v-114h19c28.667 0 48.667 7.33301 60 22c7.33301 9.33301 11 21 11 35z" />
    <glyph glyph-name="oe" unicode="&#x153;" horiz-adv-x="822" 
d="M801 174c0 -51.333 -19 -93.168 -57 -125.501s-91.333 -48.5 -160 -48.5h-266v201h-81v-193l-194 -16v516l194 16v-178h81v162l194 16v-178h47c62 0 111.333 -8 148 -24c62.667 -27.333 94 -76.666 94 -147.999zM595 177.998c0 18 -7.66797 30.333 -23.001 37
c-9.33301 4 -22 6 -38 6h-22v-87h23c22.667 0 38.334 4.16699 47.001 12.5s13 18.833 13 31.5z" />
    <glyph glyph-name="Scaron" unicode="&#x160;" horiz-adv-x="894" 
d="M873 232c0 -62.667 -20.668 -116 -62.001 -160c-45.333 -48 -106.666 -72 -183.999 -72h-242l-89 449l-87 -465l-214 16l170 686h267l55 -222h120c88 0 156 -24.333 204 -73c41.333 -42 62 -95 62 -159zM648.999 232c0 17.333 -5 31 -15 41
c-12.667 12.667 -31.667 19 -57 19h-47l30 -120h18c22.667 0 40.167 5 52.5 15s18.5 25 18.5 45z" />
    <glyph glyph-name="scaron" unicode="&#x161;" horiz-adv-x="764" 
d="M744 182c0 -51.333 -18 -93.668 -54 -127.001c-40 -36.667 -96 -55 -168 -55h-215l-57 338h-4l-51 -354l-192 16l120 516h261l38 -164h75c64.667 0 116 -8.33301 154 -25c62 -27.333 93 -75.666 93 -144.999zM533 181.998c0 17.333 -7.66797 29.333 -23.001 36
c-9.33301 4 -22 6 -38 6h-30l20 -86h11c22.667 0 38.334 4.16699 47.001 12.5s13 18.833 13 31.5z" />
    <glyph glyph-name="Ydieresis" unicode="&#x178;" horiz-adv-x="550" 
d="M507 0h-135v-103l-194 -26v129h-135v508l194 16v-374h76v358l194 16v-524z" />
    <glyph glyph-name="florin" unicode="&#x192;" horiz-adv-x="404" 
d="M394 669l-247 -113l-35 65l238 137zM394 352h-157v-344l-194 -16v524h321z" />
    <glyph glyph-name="circumflex" unicode="&#x2c6;" horiz-adv-x="334" 
d="M354 583l-104 -16l-81 70h-4l-81 -70l-104 16l187 156z" />
    <glyph glyph-name="tilde" unicode="&#x2dc;" horiz-adv-x="295" 
d="M351 670c-22.667 -22.667 -46.335 -38.667 -71.002 -48c-18 -6.66699 -36.667 -10 -56 -10c-16 0 -29.667 1.5 -41 4.5s-21.333 6 -30 9s-20.5 6.33301 -35.5 10s-26.5 5.5 -34.5 5.5c-15.333 0 -29.166 -2.66699 -41.499 -8s-23.833 -13.333 -34.5 -24l-64 60
c16 14.667 32.667 26.667 50 36c26.667 14.667 52.667 22 78 22c21.333 0 39.666 -5 54.999 -15s46 -15 92 -15c12.667 0 24.334 2.33301 35.001 7s22.334 13 35.001 25z" />
    <glyph glyph-name="endash" unicode="&#x2013;" horiz-adv-x="600" 
d="M558 197h-516v122h516v-122z" />
    <glyph glyph-name="emdash" unicode="&#x2014;" horiz-adv-x="1000" 
d="M1000 193h-1000v130h1000v-130z" />
    <glyph glyph-name="quoteleft" unicode="&#x2018;" horiz-adv-x="222" 
d="M210 441l-160 -47c-10.667 14 -19.667 30.167 -27 48.5s-11 37.5 -11 57.5c0 26 5 55.667 15 89c5.33301 18 15 44 29 78l14 35h130l-13 -44c-11.333 -37.333 -18 -62 -20 -74s-3 -26.667 -3 -44c0 -21.333 2.83301 -39.333 8.5 -54s18.167 -29.667 37.5 -45z" />
    <glyph glyph-name="quoteright" unicode="&#x2019;" horiz-adv-x="222" 
d="M210 596c0 -26 -5 -55.666 -15 -88.999c-5.33301 -18 -15 -44 -29 -78l-14 -35h-130l13 44c11.333 37.333 18 62 20 74s3 26.667 3 44c0 21.333 -2.33301 38 -7 50c-6.66699 17.333 -19.667 33.666 -39 48.999l160 47c10.667 -14 19.667 -30.167 27 -48.5
s11 -37.5 11 -57.5z" />
    <glyph glyph-name="quotesinglbase" unicode="&#x201a;" horiz-adv-x="295" 
d="M304 197l-136 -386h-141l88 372z" />
    <glyph glyph-name="quotedblleft" unicode="&#x201c;" horiz-adv-x="389" 
d="M373 468l-139.999 -27.998c-10.667 20.667 -17.834 38.5 -21.501 53.5s-5.5 32.167 -5.5 51.5c0 27.333 4.33301 54.666 13 81.999c4.66699 15.333 13.667 37.333 27 66l4 9l110 -12l-9 -32c-4 -12.667 -8 -28.334 -12 -47.001s-6 -36 -6 -52s2.66699 -31.333 8 -46
s16 -29.667 32 -45zM182.001 468.002l-139.999 -27.998c-10.667 20.667 -17.834 38.5 -21.501 53.5s-5.5 32.167 -5.5 51.5c0 27.333 4.33301 54.666 13 81.999c4.66699 15.333 13.667 37.333 27 66l4 9l110 -12l-9 -32c-4 -12.667 -8 -28.334 -12 -47.001s-6 -36 -6 -52
s2.66699 -31.333 8 -46s16 -29.667 32 -45z" />
    <glyph glyph-name="quotedblright" unicode="&#x201d;" horiz-adv-x="389" 
d="M374 597c0 -27.333 -4.33398 -54.668 -13.001 -82.001c-4.66699 -15.333 -13.667 -37.333 -27 -66l-4 -9l-110 12l9 32c4 12.667 8 28.334 12 47.001s6 36 6 52s-2.66699 31.333 -8 46s-16 29.667 -32 45l140 28c10.667 -20.667 17.834 -38.5 21.501 -53.5
s5.5 -32.167 5.5 -51.5zM182.999 596.998c0 -27.333 -4.33398 -54.668 -13.001 -82.001c-4.66699 -15.333 -13.667 -37.333 -27 -66l-4 -9l-110 12l9 32c4 12.667 8 28.334 12 47.001s6 36 6 52s-2.66699 31.333 -8 46s-16 29.667 -32 45l140 28
c10.667 -20.667 17.834 -38.5 21.501 -53.5s5.5 -32.167 5.5 -51.5z" />
    <glyph glyph-name="quotedblbase" unicode="&#x201e;" horiz-adv-x="389" 
d="M374 25c0 -27.333 -4.33398 -54.668 -13.001 -82.001c-4.66699 -15.333 -13.667 -37.333 -27 -66l-4 -9l-110 12l9 32c4 12.667 8 28.334 12 47.001s6 36 6 52s-2.66699 31.333 -8 46s-16 29.667 -32 45l140 28c10.667 -20.667 17.834 -38.5 21.501 -53.5
s5.5 -32.167 5.5 -51.5zM182.999 24.998c0 -27.333 -4.33398 -54.668 -13.001 -82.001c-4.66699 -15.333 -13.667 -37.333 -27 -66l-4 -9l-110 12l9 32c4 12.667 8 28.334 12 47.001s6 36 6 52s-2.66699 31.333 -8 46s-16 29.667 -32 45l140 28
c10.667 -20.667 17.834 -38.5 21.501 -53.5s5.5 -32.167 5.5 -51.5z" />
    <glyph glyph-name="dagger" unicode="&#x2020;" horiz-adv-x="615" 
d="M607 362h-170v-530l-212 -16v546h-170v154h170v170h212v-170h170v-154z" />
    <glyph glyph-name="daggerdbl" unicode="&#x2021;" horiz-adv-x="617" 
d="M609 362h-170v-172h168v-154h-168v-203l-212 -16v219h-172v154h172v172h-170v154h170v170h212v-170h170v-154z" />
    <glyph glyph-name="bullet" unicode="&#x2022;" horiz-adv-x="500" 
d="M422 342c0 -46.667 -15.832 -86.833 -47.499 -120.5s-73.167 -50.5 -124.5 -50.5c-48 0 -88.5 16.5 -121.5 49.5s-49.5 73.5 -49.5 121.5c0 50 16.167 91.167 48.5 123.5s73.166 48.5 122.499 48.5c48.667 0 89.5 -16.167 122.5 -48.5s49.5 -73.5 49.5 -123.5z" />
    <glyph glyph-name="ellipsis" unicode="&#x2026;" horiz-adv-x="1000" 
d="M963 114l-130 -130l-130 130l130 130zM630 114l-130 -130l-130 130l130 130zM297 114l-130 -130l-130 130l130 130z" />
    <glyph glyph-name="perthousand" unicode="&#x2030;" horiz-adv-x="1000" 
d="M1007 155c0 -43.333 -15 -80 -45 -110s-66.667 -45 -110 -45s-80 15 -110 45s-45 66.667 -45 110s15 80 45 110s66.667 45 110 45s80 -15 110 -45s45 -66.667 45 -110zM657 155c0 -43.333 -15 -80 -45 -110s-66.667 -45 -110 -45s-80 15 -110 45s-45 66.667 -45 110
s15 80 45 110s66.667 45 110 45s80 -15 110 -45s45 -66.667 45 -110zM562 702l-389.999 -718.001h-101l301 543l-2 2c-10 -5.33301 -20 -7.33301 -30 -6l-30 3c0 -43.333 -14.833 -79.166 -44.5 -107.499s-66.5 -42.5 -110.5 -42.5c-43.333 0 -80 14.667 -110 44
s-45 66.333 -45 111c0 43.333 15 80 45 110s66.667 45 110 45c22.667 0 44.667 -4.33301 66 -13c13.333 -5.33301 29 -14.333 47 -27l17 -12c16.667 -11.333 26.667 -18 30 -20c11.333 -6 24 -9 38 -9c21.333 0 41.166 7.5 59.499 22.5s33.5 39.833 45.5 74.5h104z
M898.001 154.999c0 12.667 -4.5 23.5 -13.5 32.5s-19.833 13.5 -32.5 13.5s-23.5 -4.5 -32.5 -13.5s-13.5 -19.833 -13.5 -32.5s4.5 -23.5 13.5 -32.5s19.833 -13.5 32.5 -13.5s23.5 4.5 32.5 13.5s13.5 19.833 13.5 32.5zM201.001 530.999c0 12.667 -4.5 23.5 -13.5 32.5
s-19.833 13.5 -32.5 13.5s-23.5 -4.5 -32.5 -13.5s-13.5 -19.833 -13.5 -32.5s4.5 -23.5 13.5 -32.5s19.833 -13.5 32.5 -13.5s23.5 4.5 32.5 13.5s13.5 19.833 13.5 32.5zM548.001 154.999c0 12.667 -4.5 23.5 -13.5 32.5s-19.833 13.5 -32.5 13.5s-23.5 -4.5 -32.5 -13.5
s-13.5 -19.833 -13.5 -32.5s4.5 -23.5 13.5 -32.5s19.833 -13.5 32.5 -13.5s23.5 4.5 32.5 13.5s13.5 19.833 13.5 32.5z" />
    <glyph glyph-name="guilsinglleft" unicode="&#x2039;" horiz-adv-x="331" 
d="M293 91h-143l-112 167l112 167h143l-111 -167z" />
    <glyph glyph-name="guilsinglright" unicode="&#x203a;" horiz-adv-x="331" 
d="M293 258l-112 -167h-143l111 167l-111 167h143z" />
    <glyph glyph-name="trademark" unicode="&#x2122;" horiz-adv-x="1013" 
d="M1012 286l-181 -12l-23 195l-106 -208l-106 208l-25 -195l-180 12l69 400h166l76 -183l75 183h165zM385 557h-97v-271l-183 -12v283h-104l28 129h356v-129z" />
    <glyph glyph-name=".null" horiz-adv-x="0" 
 />
    <glyph glyph-name="nonmarkingreturn" horiz-adv-x="233" 
 />
    </font>
</defs>
</svg>
